<?xml version="1.0" encoding="UTF-8" standalone="no"?>
<!-- Created with Inkscape (http://www.inkscape.org/) -->

<svg
   xmlns:dc="http://purl.org/dc/elements/1.1/"
   xmlns:cc="http://creativecommons.org/ns#"
   xmlns:rdf="http://www.w3.org/1999/02/22-rdf-syntax-ns#"
   xmlns:svg="http://www.w3.org/2000/svg"
   xmlns="http://www.w3.org/2000/svg"
   xmlns:sodipodi="http://sodipodi.sourceforge.net/DTD/sodipodi-0.dtd"
   xmlns:inkscape="http://www.inkscape.org/namespaces/inkscape"
   width="90.400002cm"
   height="90.400002cm"
   viewBox="0 0 904 903.99998"
   version="1.1"
   id="svg827"
   inkscape:version="0.92.2 (5c3e80d, 2017-08-06)"
   sodipodi:docname="88.svg">
  <defs
     id="defs821" />
  <sodipodi:namedview
     id="base"
     pagecolor="#ffffff"
     bordercolor="#666666"
     borderopacity="1.0"
     inkscape:pageopacity="0.0"
     inkscape:pageshadow="2"
     inkscape:zoom="0.11313709"
     inkscape:cx="493.25366"
     inkscape:cy="525.76184"
     inkscape:document-units="cm"
     inkscape:current-layer="layer1"
     showgrid="false"
     units="cm"
     fit-margin-top="0"
     fit-margin-left="0"
     fit-margin-right="0"
     fit-margin-bottom="0"
     inkscape:window-width="1920"
     inkscape:window-height="1057"
     inkscape:window-x="-8"
     inkscape:window-y="-8"
     inkscape:window-maximized="1"
     inkscape:snap-global="false" />
  <metadata
     id="metadata824">
    <rdf:RDF>
      <cc:Work
         rdf:about="">
        <dc:format>image/svg+xml</dc:format>
        <dc:type
           rdf:resource="http://purl.org/dc/dcmitype/StillImage" />
        <dc:title></dc:title>
      </cc:Work>
    </rdf:RDF>
  </metadata>
  <g
     inkscape:label="Layer 1"
     inkscape:groupmode="layer"
     id="layer1"
     transform="translate(-7048.9105,1873.9865)">
    <circle
       style="opacity:1;fill:#af1e2d;fill-opacity:1;fill-rule:nonzero;stroke:none;stroke-width:120;stroke-miterlimit:4;stroke-dasharray:none;stroke-opacity:1"
       id="path1372"
       cx="7500.9106"
       cy="-1421.9865"
       r="450" />
    <circle
       r="390"
       cy="-1421.9865"
       cx="7500.9106"
       id="circle1374"
       style="opacity:1;fill:#ffffff;fill-opacity:1;fill-rule:nonzero;stroke:none;stroke-width:119.99999237;stroke-miterlimit:4;stroke-dasharray:none;stroke-opacity:1" />
    <path
       inkscape:connector-curvature="0"
       id="path819"
       style="fill:#000000;stroke:none;stroke-width:0.08466668;stroke-linecap:round;stroke-linejoin:round;stroke-miterlimit:10;stroke-dasharray:none;stroke-opacity:1"
       d="m 7653.9207,-1601.9865 15.865,0.6054 15.5595,2.7458 14.9484,4.2722 13.7289,6.4068 6.7124,3.9652 6.4069,4.5763 6.1013,5.1875 5.7971,5.7957 5.4916,6.4068 5.186,7.018 4.8819,7.6262 4.2708,8.2374 3.9666,9.1527 3.9666,9.4582 3.0499,10.6776 3.0514,10.9831 2.1361,11.8985 2.1346,12.8137 1.5264,13.4248 0.9081,14.3387 0.3027,14.9497 v 15.8637 l -0.6054,15.2553 -1.2251,14.3387 -1.525,13.7289 -1.8305,12.8137 -2.4403,11.8985 -2.7458,11.2887 -3.3569,10.6776 -3.661,9.7623 -3.9652,9.1527 -4.2722,8.5429 -4.5763,7.6277 -5.186,7.3221 -5.1861,6.4069 -5.7971,5.7956 -5.7972,5.4916 -6.4068,4.5763 -13.1178,7.6278 -14.0346,5.7971 -14.9498,3.6611 -15.8636,1.8305 h -15.865 l -15.8651,-0.9081 -15.2539,-2.7458 -14.3387,-4.2722 -13.4248,-6.1013 -6.4068,-3.9667 -6.1013,-4.5763 -5.7972,-5.186 -5.4916,-5.797 -5.186,-6.4069 -4.8819,-7.3221 -4.5763,-7.9318 -4.2707,-8.8471 -3.6611,-9.4582 -3.3555,-10.6776 -3.0513,-11.2887 -2.4403,-12.204 -2.1361,-13.1178 -1.5249,-14.0346 -1.2252,-15.2539 -0.6053,-16.1706 -0.3027,-17.0845 0.6053,-17.0844 0.6054,-15.5595 1.525,-14.9498 1.8305,-13.729 2.1361,-12.8137 2.7458,-11.5928 3.0499,-10.9832 3.6611,-10.0679 3.9666,-9.4582 4.2707,-8.2374 4.5764,-7.6276 4.8818,-7.0166 5.4916,-6.4068 5.4916,-5.4916 6.1013,-4.8819 6.1027,-4.2708 6.4069,-3.661 13.7289,-5.7972 14.6442,-3.9652 15.254,-2.4416 15.865,-0.6054 z" />
    <path
       inkscape:connector-curvature="0"
       id="path821"
       style="fill:#ffffff;stroke:none;stroke-width:0.08466668;stroke-linecap:round;stroke-linejoin:round;stroke-miterlimit:10;stroke-dasharray:none;stroke-opacity:1"
       d="m 7653.9207,-1544.0193 8.5429,0.6054 7.9318,1.8305 7.9318,3.0514 7.3221,4.2707 7.018,6.1013 6.1013,7.3221 5.7972,9.1526 4.8804,10.9832 3.9666,12.5096 3.3555,14.6442 2.1361,16.4748 1.2252,18.6094 0.3027,10.0679 v 10.9831 l -0.3027,10.6791 -0.6054,9.7623 -0.6054,9.4582 -1.2251,9.1527 -2.7458,15.8636 -3.6611,14.0345 -4.2707,11.8984 -5.186,9.7624 -5.7972,8.2373 -6.4068,6.7125 -7.0166,4.8818 -7.3221,3.6611 -7.9333,2.4402 -8.2373,0.9081 -8.5415,0.3027 -8.543,-0.6054 -7.9318,-1.525 -7.6277,-2.7458 -7.0165,-3.9666 -6.7124,-5.7957 -6.1013,-7.018 -5.1875,-9.1526 -4.5763,-11.2873 -2.1346,-6.7124 -1.5264,-7.0166 -1.525,-7.6276 -1.525,-8.543 -0.9224,-9.1526 -0.9225,-9.7624 -0.6054,-10.3734 -0.3027,-11.2873 -0.3026,-12.204 0.3026,-11.2888 0.3027,-10.6776 0.9225,-9.7623 0.9225,-9.1526 1.2251,-8.8486 1.2252,-7.9318 1.8305,-7.3221 3.9652,-13.1192 4.5763,-10.9832 5.4916,-8.8471 6.1027,-7.3221 6.711,-5.4916 7.3221,-3.9666 7.6277,-2.7458 8.2374,-1.525 8.2373,-0.6053 z" />
    <path
       style="fill:#000000;stroke:none;stroke-width:0.14816667;stroke-linecap:round;stroke-linejoin:round;stroke-miterlimit:10;stroke-dasharray:none;stroke-opacity:1"
       d="m 7339.1148,-1241.9865 5.4111,-0.1514 5.4865,-0.2305 5.487,-0.5333 5.487,-0.6098 5.5629,-0.8382 5.487,-0.9906 5.4865,-1.2196 5.487,-1.3715 5.4111,-1.6764 5.258,-1.8293 5.2586,-2.0578 5.1057,-2.2861 5.0296,-2.5146 4.8773,-2.8195 4.6488,-2.9724 4.5723,-3.2768 4.3439,-3.5817 4.115,-3.8101 3.9626,-4.039 3.6581,-4.4199 3.4293,-4.6488 3.2008,-4.9532 2.896,-5.1826 2.5145,-5.563 2.2862,-5.8679 1.9053,-6.2487 1.6004,-6.4776 1.2191,-6.859 0.8382,-7.2394 0.3813,-7.4683 -0.1514,-4.5713 -0.3059,-4.4958 -0.3814,-4.3439 -0.6092,-4.268 -0.7623,-4.191 -0.8381,-4.0395 -0.9907,-3.962 -1.1431,-3.8866 -1.219,-3.7347 -1.372,-3.6576 -3.0484,-7.011 -3.4293,-6.63 -3.8866,-6.2493 -4.2674,-5.8678 -4.5723,-5.563 -4.8772,-5.1062 -5.1822,-4.8007 -5.411,-4.4199 -5.563,-4.1155 -5.7919,-3.7341 -5.9438,-3.4293 -6.0968,-3.0484 -6.1727,-2.7435 -6.1728,-2.4386 -6.2487,-2.1337 -6.2492,-1.8288 -6.2487,-1.448 -6.0968,-1.2196 -6.0968,-0.9141 -5.8673,-0.6858 -5.7919,-0.3808 -5.5635,-0.076 -5.4105,0.2263 -5.1062,0.4573 -4.8007,0.6858 -4.4964,0.9147 -5.3924,1.5167 -1.2315,-0.9033 0.7623,-2.5146 0.9141,-2.5911 1.2191,-2.82 1.372,-2.9719 1.6004,-3.0484 1.7528,-3.2768 1.9813,-3.3532 2.1337,-3.4293 2.2862,-3.5817 2.4386,-3.5817 5.2581,-7.3923 5.7919,-7.5442 6.2487,-7.5448 6.6301,-7.4678 6.859,-7.1639 7.1634,-6.782 7.3158,-6.2492 3.6582,-2.9724 3.6577,-2.743 3.7341,-2.5911 3.6582,-2.3626 3.5817,-2.2097 3.4292,-1.9818 3.2768,-1.8288 3.0484,-1.6004 -0.8382,-1.1431 -0.9147,-1.2191 -2.1337,-2.8959 -2.3621,-3.2009 -2.6675,-3.5817 -2.7436,-3.7341 -2.8959,-3.8866 -5.7919,-7.8491 -2.7435,-3.7341 -2.667,-3.5817 -2.3627,-3.2009 -2.1332,-2.8194 -0.9146,-1.2956 -0.8387,-1.0671 -0.6858,-0.9906 -0.6093,-0.8382 -0.5338,-0.6863 -0.3059,-0.4568 -0.2305,-0.3064 -0.076,-0.076 -5.5635,2.9724 -5.5625,3.2768 -5.487,3.5052 -5.487,3.8866 -5.487,4.1155 -5.3345,4.3434 -5.3346,4.6488 -5.334,4.8013 -5.1827,5.1056 -5.1821,5.2586 -5.0291,5.563 -4.9537,5.6394 -4.8773,5.9438 -4.8012,6.0204 -4.6483,6.2492 -4.5729,6.3252 -4.4193,6.5536 -4.268,6.6301 -4.1915,6.7825 -3.9625,6.935 -3.8866,6.9345 -3.7341,7.0874 -3.5817,7.1634 -3.3533,7.2398 -3.2003,7.3153 -3.0484,7.3164 -2.82,7.3918 -2.667,7.3923 -2.4386,7.3918 -2.2102,7.4683 -1.9813,7.3923 -1.8288,7.4683 -1.5245,7.3918 -1.3715,7.3158 -1.0671,7.3163 -0.8382,7.2394 -0.5333,7.2399 -0.3064,7.0874 -0.076,7.0109 0.2269,6.935 0.5338,6.8585 0.8382,6.7061 1.0666,6.5541 1.4479,6.4776 1.7529,6.2487 1.9813,6.1728 2.3621,5.9438 2.7435,5.7919 3.0484,5.5635 3.3533,5.4105 3.7341,5.1821 4.115,4.9537 4.4204,4.7248 4.8767,4.4199 5.1827,4.2674 5.5629,3.9631 6.0203,3.6576 6.4017,3.4293 6.782,3.0484 7.1634,2.8195 7.6212,2.5151 8.0776,2.1337 8.4589,1.8288 8.9163,1.448 5.258,0.2268 z"
       id="path42229"
       inkscape:connector-curvature="0" />
    <path
       d="m 7406.4819,-1345.3241 v -4.9533 l -0.6099,-4.9537 -1.2191,-4.877 -1.753,-4.7251 -2.3622,-4.6484 -2.8961,-4.4201 -3.353,-4.2675 -3.9629,-3.8865 -4.2674,-3.658 -4.8011,-3.277 -5.106,-2.9721 -5.4105,-2.5148 -5.7156,-2.0576 -5.8678,-1.6767 -6.0968,-1.219 -6.1728,-0.7622 -6.2487,-0.2269 -6.1728,0.2269 -6.0968,0.6858 -6.0201,1.1431 -5.7918,1.6004 -5.5633,2.1339 -5.3342,2.4385 -4.8774,2.8957 -4.5724,3.2771 -4.1152,3.5816 -3.6579,3.9629 -3.1244,4.1915 -2.6675,4.4197 -2.0576,4.5725 -1.4476,4.801 -0.9145,4.8774 -0.3061,4.8773 0.3061,4.9534 0.9145,4.8773 1.4476,4.8774 2.0576,4.7247 2.5912,4.4961 3.2007,4.3438 3.6579,4.1152 4.1152,3.7343 4.4961,3.5056 4.9537,3.1244 5.3342,2.7434 5.5633,2.2862 5.7918,1.9053 6.0201,1.3718 6.0968,0.9904 6.1728,0.5336 h 6.2487 l 6.1728,-0.4573 6.0205,-0.9145 5.9441,-1.3717 5.7156,-1.9053 5.4105,-2.2862 5.106,-2.6671 4.7247,-3.0484 4.3438,-3.4293 3.8866,-3.8103 3.4293,-4.0388 2.8961,-4.3438 2.3622,-4.4965 1.753,-4.7247 1.2191,-4.801 z"
       style="fill:#ffffff;stroke:none;stroke-width:0.14816667;stroke-linecap:round;stroke-linejoin:round;stroke-miterlimit:10;stroke-dasharray:none;stroke-opacity:1"
       id="path42237"
       inkscape:connector-curvature="0" />
  </g>
</svg>
