<?xml version="1.0" encoding="UTF-8"?>
<svg xmlns="http://www.w3.org/2000/svg" xmlns:xlink="http://www.w3.org/1999/xlink" width="3085px" height="2734px" viewBox="0 0 2314 2051" version="1.1">
<g id="surface1">
<path style="fill-rule:nonzero;fill:rgb(68.627453%,11.764706%,17.647059%);fill-opacity:1;stroke-width:120;stroke-linecap:butt;stroke-linejoin:round;stroke:rgb(68.627453%,11.764706%,17.647059%);stroke-opacity:1;stroke-miterlimit:4;" d="M 514.014423 -295.102261 L 860.099868 -894.53883 L 167.930356 -894.53883 Z M 514.014423 -295.102261 " transform="matrix(2.835136,0,0,2.835475,-300.339731,2712.239506)"/>
<path style="fill-rule:nonzero;fill:rgb(100%,100%,100%);fill-opacity:1;stroke-width:30;stroke-linecap:butt;stroke-linejoin:round;stroke:rgb(100%,100%,100%);stroke-opacity:1;stroke-miterlimit:4;" d="M 514.014423 -325.10853 L 834.11456 -879.537762 L 193.914286 -879.539139 Z M 514.014423 -325.10853 " transform="matrix(2.835136,0,0,2.835475,-300.339731,2712.239506)"/>
<path style=" stroke:none;fill-rule:nonzero;fill:rgb(0%,0%,0%);fill-opacity:1;" d="M 1561.097656 661.394531 L 1562.449219 663.070312 L 1563.90625 664.636719 L 1565.472656 666.09375 L 1567.09375 667.390625 L 1568.824219 668.632812 L 1570.660156 669.714844 L 1572.550781 670.632812 L 1574.496094 671.445312 L 1576.546875 672.09375 L 1578.65625 672.632812 L 1580.816406 673.011719 L 1581.898438 673.117188 L 1582.597656 673.171875 L 1583.355469 673.226562 L 1585.03125 673.171875 L 1586.652344 673.011719 L 1588.378906 672.6875 L 1590.109375 672.253906 L 1591.835938 671.714844 L 1593.511719 671.011719 L 1595.242188 670.253906 L 1596.917969 669.335938 L 1598.535156 668.308594 L 1600.105469 667.230469 L 1601.617188 666.039062 L 1603.074219 664.742188 L 1605.667969 661.933594 L 1606.804688 660.367188 L 1607.773438 658.800781 L 1608.640625 657.125 L 1609.394531 655.449219 L 1609.9375 653.667969 L 1610.367188 651.832031 L 1610.585938 649.992188 L 1610.585938 648.101562 L 1610.53125 647.128906 L 1610.53125 451.964844 L 1610.367188 449.320312 L 1609.992188 446.777344 L 1609.394531 444.292969 L 1608.695312 441.863281 L 1607.773438 439.539062 L 1606.695312 437.324219 L 1605.453125 435.164062 L 1604.101562 433.164062 L 1602.535156 431.21875 L 1600.914062 429.378906 L 1599.132812 427.707031 L 1597.1875 426.140625 L 1595.1875 424.679688 L 1593.027344 423.328125 L 1590.8125 422.140625 L 1588.488281 421.113281 L 1586.109375 420.195312 L 1583.625 419.4375 L 1581.085938 418.84375 L 1578.4375 418.414062 L 1575.792969 418.140625 L 1573.035156 418.035156 L 1570.335938 418.089844 L 1567.632812 418.359375 L 1565.039062 418.84375 L 1562.449219 419.492188 L 1559.960938 420.25 L 1557.585938 421.222656 L 1555.207031 422.355469 L 1552.992188 423.597656 L 1550.832031 425.003906 L 1548.78125 426.515625 L 1546.835938 428.136719 L 1544.996094 429.921875 L 1543.269531 431.757812 L 1541.703125 433.703125 L 1540.242188 435.757812 L 1538.945312 437.863281 L 1537.757812 440.078125 L 1536.730469 442.292969 L 1535.867188 444.617188 L 1535.164062 446.996094 L 1534.679688 449.371094 L 1534.300781 451.804688 L 1534.140625 454.289062 L 1534.140625 456.722656 L 1534.300781 459.097656 L 1534.570312 461.421875 L 1534.894531 463.691406 L 1535.378906 465.796875 L 1535.972656 467.90625 L 1536.675781 469.90625 L 1537.433594 471.851562 L 1538.296875 473.6875 L 1539.269531 475.46875 L 1540.351562 477.144531 L 1541.484375 478.765625 L 1542.671875 480.332031 L 1543.96875 481.792969 L 1546.78125 484.492188 L 1549.804688 486.871094 L 1553.046875 488.925781 L 1556.503906 490.707031 L 1558.285156 491.464844 L 1559.207031 491.789062 L 1559.421875 491.84375 L 1559.476562 492.328125 L 1559.476562 587.53125 L 1559.421875 587.476562 L 1559.367188 587.261719 L 1558.71875 585.640625 L 1557.960938 583.910156 L 1557.097656 582.074219 L 1556.125 580.128906 L 1555.097656 578.183594 L 1554.019531 576.132812 L 1551.480469 571.808594 L 1548.722656 567.324219 L 1545.644531 562.730469 L 1542.296875 558.03125 L 1538.730469 553.382812 L 1535 548.738281 L 1531.058594 544.253906 L 1526.953125 539.929688 L 1522.738281 535.824219 L 1518.46875 532.042969 L 1514.09375 528.582031 L 1511.878906 527.015625 L 1509.664062 525.558594 L 1507.449219 524.261719 L 1505.234375 523.019531 L 1503.019531 521.992188 L 1500.804688 521.019531 L 1498.644531 520.261719 L 1496.425781 519.613281 L 1494.265625 519.183594 L 1492.105469 518.859375 L 1490 518.75 L 1487.890625 518.859375 L 1485.785156 519.128906 L 1483.785156 519.613281 L 1481.734375 520.316406 L 1479.789062 521.179688 L 1477.84375 522.316406 L 1476.003906 523.667969 L 1475.519531 524.042969 L 1475.25 524.316406 L 1475.25 524.476562 L 1475.410156 525.015625 L 1475.898438 525.773438 L 1476.601562 526.855469 L 1477.519531 528.097656 L 1478.707031 529.609375 L 1480.058594 531.394531 L 1481.625 533.339844 L 1483.355469 535.5 L 1485.191406 537.878906 L 1487.191406 540.417969 L 1489.296875 543.117188 L 1491.511719 546.035156 L 1493.835938 549.117188 L 1496.210938 552.304688 L 1498.589844 555.652344 L 1501.019531 559.164062 L 1503.449219 562.730469 L 1508.3125 570.296875 L 1513.011719 578.238281 L 1517.445312 586.453125 L 1521.929688 595.097656 L 1531.21875 612.875 L 1535.921875 621.625 L 1538.1875 625.839844 L 1540.457031 630 L 1542.671875 633.945312 L 1544.78125 637.78125 L 1546.886719 641.402344 L 1548.886719 644.804688 L 1550.777344 647.992188 L 1552.558594 650.859375 L 1554.234375 653.453125 L 1555.800781 655.773438 L 1557.207031 657.664062 L 1558.449219 659.234375 L 1559.042969 659.882812 L 1559.582031 660.421875 L 1560.070312 660.855469 L 1560.5 661.125 L 1560.933594 661.339844 Z M 1561.097656 661.394531 "/>
<path style=" stroke:none;fill-rule:nonzero;fill:rgb(0%,0%,0%);fill-opacity:1;" d="M 1129.304688 651.097656 L 1129.035156 652.769531 L 1128.65625 654.445312 L 1128.117188 656.0625 L 1127.523438 657.628906 L 1126.769531 659.140625 L 1125.902344 660.597656 L 1124.988281 662.054688 L 1123.90625 663.402344 L 1121.585938 665.886719 L 1118.996094 668.152344 L 1116.136719 669.988281 L 1114.625 670.796875 L 1113.058594 671.5 L 1111.496094 672.09375 L 1109.875 672.523438 L 1108.257812 672.902344 L 1106.636719 673.121094 L 1104.964844 673.226562 L 1103.34375 673.226562 L 1101.671875 673.066406 L 1100 672.796875 L 1098.328125 672.363281 L 1096.652344 671.824219 L 1095.035156 671.230469 L 1093.414062 670.472656 L 1090.230469 668.640625 L 1087.316406 666.480469 L 1085.96875 665.292969 L 1084.671875 663.996094 L 1083.429688 662.648438 L 1082.351562 661.246094 L 1081.378906 659.789062 L 1080.515625 658.222656 L 1079.761719 656.65625 L 1079.167969 655.039062 L 1078.683594 653.363281 L 1078.414062 651.691406 L 1078.304688 650.828125 L 1078.304688 648.507812 L 1078.25 642.300781 L 1078.25 617.578125 L 1078.304688 518.699219 L 1078.304688 517.941406 L 1078.359375 515.566406 L 1078.464844 506.175781 L 1078.359375 496.785156 L 1078.304688 494.460938 L 1078.304688 493.707031 L 1078.25 493.652344 L 1078.144531 493.597656 L 1077.605469 493.4375 L 1075.5 492.628906 L 1073.503906 491.710938 L 1071.503906 490.738281 L 1069.617188 489.660156 L 1067.78125 488.472656 L 1066.054688 487.175781 L 1064.382812 485.828125 L 1062.816406 484.367188 L 1061.304688 482.804688 L 1059.902344 481.128906 L 1058.605469 479.402344 L 1057.417969 477.566406 L 1056.339844 475.625 L 1055.367188 473.628906 L 1054.503906 471.523438 L 1053.75 469.308594 L 1053.15625 467.042969 L 1052.671875 464.667969 L 1052.292969 462.183594 L 1052.132812 459.59375 L 1052.023438 456.949219 L 1052.132812 454.25 L 1052.453125 451.550781 L 1053.046875 448.90625 L 1053.75 446.261719 L 1054.722656 443.671875 L 1055.855469 441.136719 L 1057.148438 438.707031 L 1058.660156 436.277344 L 1060.28125 434.011719 L 1062.113281 431.796875 L 1064.058594 429.746094 L 1066.109375 427.804688 L 1068.320312 426.023438 L 1070.695312 424.402344 L 1073.125 422.890625 L 1075.660156 421.597656 L 1078.304688 420.515625 L 1081.058594 419.597656 L 1083.863281 418.953125 L 1086.777344 418.519531 L 1089.746094 418.304688 L 1092.714844 418.304688 L 1095.628906 418.574219 L 1098.488281 419.058594 L 1101.296875 419.761719 L 1104.046875 420.625 L 1106.640625 421.703125 L 1109.175781 422.945312 L 1111.605469 424.402344 L 1113.925781 425.96875 L 1116.082031 427.75 L 1118.132812 429.636719 L 1120.023438 431.691406 L 1121.804688 433.847656 L 1123.367188 436.167969 L 1124.828125 438.597656 L 1126.066406 441.136719 L 1127.09375 443.726562 L 1127.957031 446.480469 L 1128.605469 449.285156 L 1129.089844 452.144531 L 1129.304688 455.113281 L 1129.304688 518.425781 L 1131.949219 514.972656 L 1134.703125 511.300781 L 1137.5625 507.417969 L 1140.53125 503.3125 L 1143.605469 499.105469 L 1146.789062 494.730469 L 1150.082031 490.304688 L 1153.484375 485.773438 L 1160.5 476.597656 L 1167.785156 467.476562 L 1175.394531 458.515625 L 1179.226562 454.195312 L 1183.164062 450.042969 L 1187.160156 446.046875 L 1191.152344 442.214844 L 1195.199219 438.542969 L 1199.25 435.199219 L 1203.351562 432.066406 L 1207.453125 429.261719 L 1211.445312 426.671875 L 1215.332031 424.457031 L 1219.109375 422.566406 L 1222.777344 420.949219 L 1226.339844 419.707031 L 1229.6875 418.789062 L 1232.925781 418.195312 L 1236 418.035156 L 1238.914062 418.195312 L 1240.265625 418.464844 L 1241.613281 418.789062 L 1242.910156 419.222656 L 1244.148438 419.761719 L 1245.335938 420.410156 L 1246.46875 421.164062 L 1247.550781 422.027344 L 1248.574219 423 L 1249.546875 424.023438 L 1250.464844 425.210938 L 1251.328125 426.507812 L 1252.136719 427.910156 L 1252.890625 429.421875 L 1253.539062 431.042969 L 1254.1875 432.769531 L 1254.726562 434.605469 L 1255.214844 436.601562 L 1255.644531 438.707031 L 1256.023438 440.917969 L 1256.292969 443.242188 L 1256.507812 445.722656 L 1256.667969 448.3125 L 1256.722656 451.011719 L 1256.777344 451.714844 L 1256.777344 651.097656 L 1256.398438 652.769531 L 1255.96875 654.445312 L 1255.375 656.0625 L 1254.671875 657.628906 L 1253.917969 659.140625 L 1253 660.597656 L 1250.949219 663.402344 L 1248.574219 665.886719 L 1245.875 668.152344 L 1243.015625 669.988281 L 1241.503906 670.796875 L 1239.9375 671.5 L 1238.375 672.09375 L 1236.753906 672.523438 L 1235.136719 672.902344 L 1233.460938 673.117188 L 1231.84375 673.226562 L 1230.171875 673.226562 L 1228.550781 673.066406 L 1226.878906 672.742188 L 1225.207031 672.308594 L 1223.53125 671.769531 L 1221.859375 671.066406 L 1220.242188 670.3125 L 1218.621094 669.394531 L 1217.109375 668.421875 L 1215.597656 667.34375 L 1214.195312 666.15625 L 1212.847656 664.914062 L 1211.550781 663.566406 L 1210.417969 662.160156 L 1209.339844 660.703125 L 1208.421875 659.191406 L 1207.613281 657.628906 L 1206.910156 656.0625 L 1206.371094 654.390625 L 1205.992188 652.714844 L 1205.777344 650.988281 L 1205.777344 648.398438 L 1205.832031 644.027344 L 1205.832031 639.816406 L 1205.886719 635.769531 L 1205.886719 620.65625 L 1205.832031 613.636719 L 1205.832031 606.835938 L 1205.777344 600.144531 L 1205.722656 586.8125 L 1205.722656 579.957031 L 1205.777344 572.832031 L 1205.777344 486.421875 L 1205.722656 486.3125 L 1205.667969 486.152344 L 1205.453125 485.503906 L 1205.128906 484.910156 L 1204.753906 484.476562 L 1204.375 484.207031 L 1203.890625 484.046875 L 1203.347656 484.046875 L 1202.753906 484.261719 L 1202.054688 484.691406 L 1201.296875 485.394531 L 1200.433594 486.3125 L 1200.21875 486.527344 L 1200.164062 486.636719 L 1200.113281 486.691406 L 1199.949219 486.796875 L 1199.355469 487.339844 L 1198.113281 488.472656 L 1196.765625 489.765625 L 1195.253906 491.171875 L 1193.742188 492.789062 L 1192.070312 494.515625 L 1190.34375 496.40625 L 1188.5625 498.402344 L 1186.726562 500.507812 L 1184.785156 502.722656 L 1182.84375 505.09375 L 1178.742188 510.0625 L 1174.53125 515.40625 L 1170.214844 521.125 L 1165.894531 527.0625 L 1161.523438 533.214844 L 1157.261719 539.585938 L 1153.160156 546.0625 L 1149.164062 552.648438 L 1145.441406 559.230469 L 1141.933594 565.816406 L 1138.804688 572.292969 L 1135.996094 578.71875 L 1134.757812 581.847656 L 1133.625 584.925781 L 1132.652344 587.945312 L 1131.734375 590.96875 L 1131.03125 593.882812 L 1130.386719 596.691406 L 1129.953125 599.496094 L 1129.628906 602.140625 L 1129.574219 602.25 L 1129.46875 602.519531 L 1129.359375 602.734375 L 1129.304688 602.789062 L 1129.304688 604.300781 L 1129.253906 608.726562 L 1129.253906 649.585938 L 1129.304688 650.71875 L 1129.304688 651.097656 "/>
<path style=" stroke:none;fill-rule:nonzero;fill:rgb(0%,0%,0%);fill-opacity:1;" d="M 971.996094 418.035156 L 974.253906 418.089844 L 976.40625 418.25 L 978.558594 418.625 L 980.710938 419.058594 L 982.753906 419.648438 L 984.796875 420.292969 L 986.734375 421.101562 L 988.667969 422.015625 L 990.5 423.039062 L 992.273438 424.167969 L 993.996094 425.351562 L 995.609375 426.695312 L 997.167969 428.09375 L 998.671875 429.546875 L 1000.070312 431.105469 L 1001.363281 432.773438 L 1002.546875 434.496094 L 1003.675781 436.269531 L 1004.699219 438.097656 L 1005.613281 440.035156 L 1006.367188 441.972656 L 1007.0625 444.015625 L 1007.65625 446.0625 L 1008.085938 448.210938 L 1008.410156 450.363281 L 1008.570312 452.570312 L 1008.679688 454.773438 L 1008.625 456.171875 L 1008.410156 459.023438 L 1007.980469 461.820312 L 1007.332031 464.511719 L 1006.472656 467.148438 L 1005.449219 469.675781 L 1004.214844 472.097656 L 1002.816406 474.464844 L 1001.308594 476.667969 L 999.589844 478.765625 L 997.757812 480.703125 L 995.769531 482.53125 L 993.671875 484.199219 L 992.542969 485.007812 L 992.003906 485.382812 L 991.679688 485.542969 L 991.574219 485.652344 L 991.679688 485.757812 L 993.941406 487.910156 L 995.984375 490.171875 L 997.757812 492.589844 L 999.265625 495.121094 L 1000.554688 497.753906 L 1001.632812 500.5 L 1002.492188 503.351562 L 1003.191406 506.199219 L 1003.730469 509.160156 L 1004.160156 512.117188 L 1004.429688 515.128906 L 1004.699219 521.101562 L 1004.699219 523.089844 L 1004.644531 527.824219 L 1004.589844 537.183594 L 1004.535156 555.90625 L 1004.644531 593.238281 L 1004.699219 612.066406 L 1004.753906 631.105469 L 1004.753906 640.789062 L 1004.699219 645.683594 L 1004.699219 649.613281 L 1004.644531 649.828125 L 1004.214844 652.410156 L 1003.40625 654.9375 L 1002.332031 657.359375 L 1000.933594 659.671875 L 999.375 661.824219 L 997.542969 663.8125 L 995.554688 665.589844 L 993.402344 667.203125 L 991.089844 668.601562 L 988.671875 669.730469 L 986.195312 670.589844 L 983.667969 671.183594 L 981.085938 671.453125 L 978.503906 671.398438 L 975.867188 671.023438 L 973.234375 670.375 L 970.652344 669.40625 L 968.125 668.171875 L 965.648438 666.664062 L 963.335938 664.996094 L 961.183594 663.058594 L 959.25 660.960938 L 957.527344 658.757812 L 956.128906 656.335938 L 955 653.863281 L 954.246094 651.226562 L 953.976562 649.882812 L 953.921875 649.234375 L 953.871094 649.074219 L 953.871094 637.886719 L 953.921875 618.574219 L 953.976562 598.992188 L 953.976562 539.714844 L 953.871094 520.027344 L 953.871094 516.960938 L 953.816406 516.960938 L 953.707031 517.066406 L 953.492188 517.226562 L 953.117188 517.550781 L 951.449219 518.894531 L 945.210938 524.488281 L 939.347656 530.191406 L 933.808594 536 L 928.699219 541.917969 L 923.910156 547.890625 L 919.445312 553.914062 L 915.304688 559.992188 L 911.484375 566.070312 L 907.988281 572.097656 L 904.761719 578.121094 L 901.804688 584.09375 L 899.167969 590.007812 L 896.695312 595.820312 L 894.542969 601.46875 L 892.554688 607.007812 L 890.832031 612.386719 L 889.273438 617.605469 L 887.925781 622.609375 L 886.742188 627.394531 L 885.722656 631.914062 L 884.863281 636.164062 L 884.164062 640.144531 L 883.570312 643.855469 L 883.140625 647.191406 L 882.765625 650.148438 L 882.496094 652.785156 L 882.441406 653.96875 L 882.386719 654.183594 L 882.332031 654.347656 L 882.277344 654.667969 L 881.417969 656.929688 L 880.34375 659.1875 L 879.050781 661.285156 L 877.546875 663.273438 L 875.878906 665.105469 L 874.105469 666.824219 L 872.113281 668.386719 L 870.070312 669.730469 L 867.917969 670.859375 L 865.660156 671.828125 L 863.347656 672.527344 L 860.980469 673.011719 L 858.613281 673.226562 L 856.085938 673.121094 L 853.449219 672.742188 L 850.867188 671.988281 L 848.234375 671.023438 L 845.703125 669.730469 L 843.285156 668.277344 L 840.972656 666.503906 L 838.875 664.621094 L 836.992188 662.46875 L 835.324219 660.210938 L 833.925781 657.84375 L 832.902344 655.3125 L 832.203125 652.679688 L 831.988281 651.332031 L 831.933594 651.011719 L 831.933594 647.621094 L 832.042969 635.789062 L 832.148438 588.558594 L 832.042969 541.382812 L 831.933594 494.3125 L 831.933594 491.945312 L 831.878906 491.839844 L 831.773438 491.839844 L 830.914062 491.515625 L 829.246094 490.871094 L 825.964844 489.472656 L 822.898438 487.75 L 819.992188 485.867188 L 817.359375 483.714844 L 814.882812 481.347656 L 812.679688 478.710938 L 810.742188 475.914062 L 809.074219 472.847656 L 807.675781 469.515625 L 806.601562 466.019531 L 805.847656 462.253906 L 805.472656 458.324219 L 805.363281 456.226562 L 805.417969 454.128906 L 805.578125 452.03125 L 805.847656 449.933594 L 806.277344 447.890625 L 806.816406 445.84375 L 807.515625 443.855469 L 808.269531 441.863281 L 809.183594 439.980469 L 810.207031 438.097656 L 811.335938 436.269531 L 812.570312 434.550781 L 813.917969 432.828125 L 815.316406 431.214844 L 816.820312 429.652344 L 818.433594 428.203125 L 820.101562 426.804688 L 821.878906 425.511719 L 823.707031 424.328125 L 825.589844 423.199219 L 827.578125 422.230469 L 829.621094 421.316406 L 831.667969 420.5625 L 833.816406 419.917969 L 836.023438 419.378906 L 838.28125 419.003906 L 840.539062 418.734375 L 842.855469 418.625 L 845.167969 418.625 L 847.480469 418.789062 L 849.792969 419.058594 L 851.996094 419.488281 L 854.203125 419.972656 L 856.300781 420.617188 L 858.398438 421.371094 L 860.441406 422.230469 L 862.378906 423.144531 L 864.261719 424.222656 L 866.089844 425.402344 L 867.863281 426.640625 L 869.53125 427.984375 L 871.144531 429.4375 L 872.652344 430.945312 L 874.105469 432.558594 L 875.394531 434.226562 L 876.632812 436 L 877.761719 437.832031 L 878.835938 439.765625 L 879.75 441.757812 L 880.558594 443.746094 L 881.203125 445.898438 L 881.796875 448.050781 L 882.226562 450.257812 L 882.546875 452.515625 L 882.710938 454.828125 L 882.761719 455.421875 L 882.761719 481.347656 L 882.816406 512.710938 L 882.871094 528.363281 L 882.816406 543.855469 L 882.761719 559.132812 L 882.761719 559.886719 L 882.816406 559.777344 L 883.140625 558.917969 L 883.839844 557.144531 L 885.238281 553.699219 L 888.25 546.816406 L 891.585938 540.089844 L 895.1875 533.527344 L 899.113281 527.074219 L 903.363281 520.777344 L 907.9375 514.699219 L 912.832031 508.835938 L 918.046875 503.242188 L 923.640625 497.808594 L 926.546875 495.226562 L 929.503906 492.699219 L 932.570312 490.226562 L 935.742188 487.859375 L 939.023438 485.542969 L 942.359375 483.285156 L 946.230469 480.863281 L 946.339844 480.8125 L 946.285156 480.8125 L 946.285156 480.757812 L 945.695312 480.164062 L 944.296875 478.605469 L 942.949219 476.992188 L 941.714844 475.269531 L 940.53125 473.496094 L 939.507812 471.613281 L 938.59375 469.675781 L 937.734375 467.738281 L 937.035156 465.695312 L 936.441406 463.597656 L 935.957031 461.445312 L 935.636719 459.292969 L 935.421875 457.035156 L 935.3125 454.773438 L 935.3125 454.34375 L 935.367188 453.808594 L 935.367188 452.675781 L 935.582031 450.472656 L 935.90625 448.320312 L 936.335938 446.167969 L 936.871094 444.125 L 937.570312 442.078125 L 938.378906 440.144531 L 939.238281 438.207031 L 940.261719 436.378906 L 941.390625 434.550781 L 942.574219 432.828125 L 943.863281 431.214844 L 945.261719 429.652344 L 946.714844 428.148438 L 948.273438 426.75 L 949.890625 425.457031 L 951.609375 424.222656 L 953.386719 423.089844 L 955.214844 422.070312 L 957.148438 421.15625 L 959.085938 420.347656 L 961.128906 419.648438 L 963.175781 419.109375 L 965.273438 418.625 L 967.476562 418.304688 L 969.628906 418.089844 L 971.886719 418.035156 L 971.996094 418.035156 "/>
<path style=" stroke:none;fill-rule:nonzero;fill:rgb(0%,0%,0%);fill-opacity:1;" d="M 1430.492188 651.035156 L 1429.792969 654.113281 L 1428.65625 657.027344 L 1427.253906 659.835938 L 1425.527344 662.425781 L 1423.527344 664.855469 L 1421.316406 667.015625 L 1418.886719 668.90625 L 1416.347656 670.472656 L 1413.648438 671.769531 L 1410.839844 672.632812 L 1408.03125 673.117188 L 1406.628906 673.226562 L 1405.171875 673.171875 L 1403.714844 673.066406 L 1402.203125 672.792969 L 1399.179688 671.984375 L 1396.101562 670.796875 L 1393.023438 669.285156 L 1390.109375 667.394531 L 1387.410156 665.234375 L 1384.980469 662.859375 L 1383.898438 661.5625 L 1382.875 660.214844 L 1382.007812 658.863281 L 1381.253906 657.40625 L 1380.605469 655.949219 L 1380.066406 654.4375 L 1379.742188 652.921875 L 1379.527344 651.359375 L 1379.472656 650.601562 L 1379.472656 472.894531 L 1379.257812 470.574219 L 1378.824219 468.359375 L 1378.230469 466.253906 L 1377.367188 464.308594 L 1376.394531 462.472656 L 1375.207031 460.746094 L 1373.859375 459.125 L 1372.347656 457.613281 L 1370.671875 456.265625 L 1368.835938 454.96875 L 1366.945312 453.835938 L 1364.839844 452.753906 L 1362.679688 451.835938 L 1360.359375 451.027344 L 1357.984375 450.324219 L 1355.5 449.730469 L 1352.964844 449.246094 L 1350.316406 448.867188 L 1347.617188 448.597656 L 1344.863281 448.433594 L 1342.058594 448.378906 L 1339.195312 448.433594 L 1336.332031 448.597656 L 1334.226562 448.8125 L 1332.175781 449.191406 L 1330.070312 449.675781 L 1328.019531 450.269531 L 1325.96875 451.027344 L 1321.863281 452.808594 L 1317.921875 454.96875 L 1314.144531 457.453125 L 1310.632812 460.097656 L 1307.449219 462.960938 L 1305.992188 464.363281 L 1304.695312 465.820312 L 1303.453125 467.28125 L 1302.375 468.738281 L 1301.457031 470.195312 L 1300.644531 471.601562 L 1299.945312 472.949219 L 1299.457031 474.300781 L 1299.402344 474.625 L 1299.351562 474.730469 L 1299.351562 474.785156 L 1299.296875 474.785156 L 1299.132812 474.839844 L 1298.917969 474.730469 L 1298.542969 474.570312 L 1297.675781 474.03125 L 1296.542969 473.164062 L 1295.355469 471.976562 L 1294.058594 470.519531 L 1292.816406 468.792969 L 1291.738281 466.847656 L 1290.875 464.632812 L 1290.335938 462.257812 L 1290.171875 460.960938 L 1290.171875 459.667969 L 1290.226562 458.261719 L 1290.335938 457.5625 L 1290.386719 457.398438 L 1290.496094 456.589844 L 1290.875 454.914062 L 1291.898438 451.621094 L 1293.195312 448.488281 L 1294.816406 445.519531 L 1296.703125 442.65625 L 1298.8125 439.957031 L 1301.242188 437.417969 L 1303.886719 435.042969 L 1306.746094 432.777344 L 1309.824219 430.667969 L 1313.117188 428.726562 L 1316.574219 426.945312 L 1320.191406 425.324219 L 1323.917969 423.867188 L 1327.804688 422.515625 L 1331.800781 421.382812 L 1335.902344 420.410156 L 1340.113281 419.601562 L 1344.378906 418.953125 L 1348.699219 418.464844 L 1353.019531 418.140625 L 1357.390625 418.035156 L 1361.820312 418.035156 L 1366.191406 418.25 L 1370.566406 418.628906 L 1374.882812 419.222656 L 1379.148438 419.980469 L 1383.359375 420.898438 L 1387.464844 421.976562 L 1391.511719 423.273438 L 1395.402344 424.730469 L 1399.179688 426.40625 L 1402.851562 428.292969 L 1406.308594 430.292969 L 1409.65625 432.558594 L 1412.730469 434.988281 L 1415.648438 437.582031 L 1418.347656 440.445312 L 1420.832031 443.46875 L 1423.042969 446.652344 L 1424.988281 450.109375 L 1426.660156 453.726562 L 1428.011719 457.5625 L 1429.089844 461.558594 L 1429.847656 465.824219 L 1430.226562 470.25 L 1430.28125 472.574219 L 1430.28125 475.757812 L 1430.332031 477.214844 L 1430.332031 480.78125 L 1430.386719 484.722656 L 1430.441406 486.613281 L 1430.441406 492.390625 L 1430.496094 492.390625 Z M 1430.492188 651.035156 "/>
<path style=" stroke:none;fill-rule:nonzero;fill:rgb(0%,0%,0%);fill-opacity:1;" d="M 663.292969 310.992188 L 666.15625 311.171875 L 668.957031 311.585938 L 671.640625 312.304688 L 674.265625 313.257812 L 676.769531 314.449219 L 679.09375 315.820312 L 681.300781 317.492188 L 683.328125 319.28125 L 685.113281 321.308594 L 686.785156 323.453125 L 688.15625 325.777344 L 689.347656 328.222656 L 690.300781 330.847656 L 690.957031 333.53125 L 691.316406 336.332031 L 691.433594 339.195312 L 691.253906 342.117188 L 690.957031 344.980469 L 690.480469 347.722656 L 689.882812 350.34375 L 689.167969 352.847656 L 688.273438 355.292969 L 687.203125 357.558594 L 686.070312 359.765625 L 684.816406 361.851562 L 683.445312 363.878906 L 681.894531 365.730469 L 680.285156 367.519531 L 678.617188 369.246094 L 676.769531 370.796875 L 674.917969 372.289062 L 672.894531 373.660156 L 670.867188 374.910156 L 668.71875 376.042969 L 666.511719 377.117188 L 664.246094 378.070312 L 659.476562 379.742188 L 654.53125 380.933594 L 649.460938 381.769531 L 644.273438 382.1875 L 638.96875 382.246094 L 633.664062 381.886719 L 628.296875 381.113281 L 623.050781 379.980469 L 617.863281 378.488281 L 612.796875 376.582031 L 607.90625 374.316406 L 603.257812 371.691406 L 598.785156 368.710938 L 596.699219 367.042969 L 594.671875 365.3125 L 592.703125 363.464844 L 590.855469 361.554688 L 589.066406 359.585938 L 587.398438 357.5 L 585.847656 355.292969 L 584.417969 353.027344 L 583.046875 350.644531 L 581.851562 348.199219 L 580.78125 345.636719 L 579.765625 343.011719 L 578.929688 340.328125 L 578.277344 337.527344 L 577.738281 334.605469 L 577.320312 331.621094 L 577.082031 328.582031 L 577.023438 325.421875 L 577.144531 320.652344 L 577.5 316 L 578.214844 311.527344 L 579.109375 307.175781 L 580.242188 303 L 581.613281 299.007812 L 583.222656 295.128906 L 585.074219 291.375 L 587.101562 287.796875 L 589.367188 284.398438 L 591.75 281.117188 L 594.375 278.015625 L 597.175781 275.035156 L 600.15625 272.234375 L 603.316406 269.550781 L 606.59375 267.046875 L 609.992188 264.71875 L 613.570312 262.515625 L 617.328125 260.425781 L 621.144531 258.578125 L 625.078125 256.789062 L 629.132812 255.238281 L 633.304688 253.808594 L 637.539062 252.496094 L 641.890625 251.421875 L 646.242188 250.410156 L 650.773438 249.636719 L 655.304688 248.980469 L 659.894531 248.503906 L 664.488281 248.144531 L 669.195312 247.964844 L 673.90625 247.90625 L 678.558594 248.085938 L 683.148438 248.441406 L 687.621094 249.039062 L 692.03125 249.875 L 696.324219 250.886719 L 700.558594 252.078125 L 704.609375 253.511719 L 708.605469 255.0625 L 712.480469 256.789062 L 716.238281 258.699219 L 719.8125 260.785156 L 723.332031 262.992188 L 726.671875 265.316406 L 729.890625 267.761719 L 732.929688 270.386719 L 735.910156 273.066406 L 738.652344 275.871094 L 741.277344 278.792969 L 743.722656 281.773438 L 746.046875 284.875 L 748.191406 288.035156 L 750.160156 291.253906 L 751.949219 294.472656 L 753.558594 297.8125 L 754.988281 301.210938 L 756.242188 304.609375 L 757.253906 308.011719 L 758.089844 311.46875 L 758.746094 314.925781 L 759.222656 318.386719 L 759.460938 321.785156 L 759.460938 325.242188 L 759.878906 325.242188 L 759.460938 589.925781 L 762.558594 591.121094 L 765.480469 592.433594 L 768.34375 593.980469 L 771.085938 595.710938 L 773.589844 597.621094 L 776.035156 599.707031 L 778.238281 601.972656 L 780.265625 604.417969 L 782.117188 607.039062 L 783.726562 609.84375 L 785.15625 612.824219 L 786.347656 616.042969 L 787.242188 619.382812 L 787.957031 622.902344 L 788.375 626.597656 L 788.496094 630.472656 L 788.316406 634.46875 L 787.660156 638.40625 L 786.585938 642.28125 L 785.15625 646.097656 L 783.367188 649.792969 L 781.222656 653.3125 L 778.71875 656.648438 L 775.972656 659.8125 L 772.933594 662.671875 L 769.65625 665.296875 L 766.136719 667.5625 L 762.382812 669.53125 L 758.445312 671.082031 L 754.390625 672.273438 L 750.160156 672.988281 L 747.953125 673.167969 L 745.808594 673.226562 L 741.394531 672.988281 L 737.160156 672.390625 L 733.046875 671.320312 L 729.113281 669.886719 L 725.355469 668.039062 L 721.839844 665.894531 L 718.558594 663.449219 L 715.519531 660.703125 L 712.71875 657.664062 L 710.273438 654.382812 L 708.1875 650.808594 L 706.398438 647.109375 L 704.96875 643.175781 L 704.011719 639.058594 L 703.417969 634.828125 L 703.296875 630.472656 L 703.355469 325.421875 L 703.296875 322.976562 L 703.058594 320.589844 L 702.761719 318.265625 L 702.34375 316.058594 L 701.808594 313.972656 L 701.152344 311.886719 L 700.4375 309.917969 L 699.601562 308.070312 L 698.648438 306.28125 L 697.632812 304.550781 L 695.367188 301.390625 L 692.804688 298.527344 L 689.941406 295.964844 L 686.84375 293.757812 L 683.503906 291.851562 L 679.988281 290.300781 L 676.351562 289.046875 L 672.59375 288.09375 L 668.71875 287.4375 L 664.785156 287.082031 L 660.847656 287.082031 L 656.855469 287.320312 L 652.980469 287.855469 L 649.101562 288.75 L 645.347656 289.882812 L 641.710938 291.3125 L 638.191406 293.042969 L 634.914062 295.011719 L 631.8125 297.335938 L 629.011719 299.902344 L 626.449219 302.703125 L 624.183594 305.863281 L 622.273438 309.261719 L 620.722656 312.898438 L 620.128906 314.808594 L 619.589844 316.835938 L 619.175781 318.863281 L 618.875 321.007812 L 618.699219 323.15625 L 618.636719 325.421875 L 618.757812 327.507812 L 618.996094 329.414062 L 619.414062 331.324219 L 619.949219 333.113281 L 620.664062 334.902344 L 621.5 336.570312 L 622.511719 338.179688 L 623.644531 339.730469 L 624.898438 341.222656 L 626.269531 342.652344 L 627.757812 344.085938 L 629.367188 345.457031 L 633.003906 348.078125 L 637 350.582031 L 637.597656 350.703125 L 636.523438 348.019531 L 635.75 345.15625 L 635.269531 342.234375 L 635.09375 339.195312 L 635.269531 336.332031 L 635.6875 333.53125 L 636.34375 330.847656 L 637.296875 328.222656 L 638.492188 325.777344 L 639.921875 323.453125 L 641.53125 321.304688 L 643.378906 319.277344 L 645.347656 317.429688 L 647.554688 315.820312 L 649.878906 314.449219 L 652.324219 313.257812 L 654.886719 312.304688 L 657.628906 311.585938 L 660.371094 311.167969 L 663.292969 310.992188 "/>
<path style=" stroke:none;fill-rule:nonzero;fill:rgb(0%,0%,0%);fill-opacity:1;" d="M 931.53125 280.832031 L 934.273438 280.953125 L 936.890625 281.378906 L 939.386719 282.109375 L 941.820312 283.023438 L 944.074219 284.179688 L 946.265625 285.519531 L 948.277344 287.105469 L 950.101562 288.808594 L 951.746094 290.636719 L 953.269531 292.644531 L 954.609375 294.714844 L 955.765625 296.90625 L 956.679688 299.160156 L 957.410156 301.414062 L 957.894531 303.726562 L 958.199219 306.042969 L 958.261719 308.417969 L 958.136719 310.730469 L 957.832031 313.105469 L 957.40625 315.480469 L 956.25 320.230469 L 954.667969 324.859375 L 952.839844 329.363281 L 950.894531 333.6875 L 949.066406 337.707031 L 947.359375 341.421875 L 953.144531 340.445312 L 958.6875 339.289062 L 963.921875 338.011719 L 968.855469 336.609375 L 973.601562 335.027344 L 978.109375 333.261719 L 982.371094 331.25 L 986.511719 329.058594 L 990.46875 326.5625 L 994.242188 323.882812 L 997.957031 320.839844 L 1001.488281 317.550781 L 1005.019531 313.957031 L 1008.367188 310 L 1011.777344 305.675781 L 1015.066406 300.988281 L 1016.832031 303.546875 L 1018.292969 306.042969 L 1019.511719 308.597656 L 1020.484375 311.097656 L 1021.277344 313.59375 L 1021.824219 316.027344 L 1022.128906 318.464844 L 1022.25 320.898438 L 1022.191406 323.273438 L 1021.886719 325.589844 L 1021.460938 327.902344 L 1020.851562 330.15625 L 1020.0625 332.347656 L 1019.085938 334.539062 L 1017.992188 336.609375 L 1016.773438 338.679688 L 1015.371094 340.691406 L 1013.851562 342.636719 L 1012.207031 344.527344 L 1010.5 346.292969 L 1006.726562 349.761719 L 1002.585938 352.867188 L 998.140625 355.667969 L 993.515625 358.105469 L 988.703125 360.175781 L 983.773438 361.878906 L 978.660156 363.28125 L 973.238281 364.378906 L 967.636719 365.289062 L 961.855469 366.019531 L 955.949219 366.507812 L 949.980469 366.8125 L 944.074219 366.996094 L 938.230469 366.996094 L 932.507812 366.875 L 927.027344 366.570312 L 921.789062 366.203125 L 916.917969 365.71875 L 912.355469 365.167969 L 908.335938 364.5 L 906.449219 364.195312 L 904.742188 363.828125 L 903.160156 363.464844 L 901.757812 363.039062 L 903.523438 361.394531 L 905.351562 359.507812 L 907.117188 357.4375 L 908.882812 355.183594 L 912.230469 350.3125 L 915.335938 345.257812 L 916.738281 342.636719 L 917.953125 340.082031 L 919.113281 337.585938 L 920.085938 335.148438 L 920.878906 332.835938 L 921.488281 330.644531 L 921.914062 328.632812 L 922.09375 326.804688 L 919.476562 325.832031 L 917.039062 324.796875 L 914.847656 323.519531 L 912.898438 322.179688 L 911.132812 320.71875 L 909.613281 319.132812 L 908.273438 317.488281 L 907.175781 315.722656 L 906.265625 313.898438 L 905.53125 312.070312 L 904.984375 310.121094 L 904.621094 308.234375 L 904.496094 306.222656 L 904.496094 304.277344 L 904.742188 302.328125 L 905.105469 300.378906 L 905.65625 298.429688 L 906.324219 296.542969 L 907.238281 294.714844 L 908.273438 292.949219 L 909.429688 291.246094 L 910.769531 289.601562 L 912.230469 288.078125 L 913.875 286.675781 L 915.640625 285.398438 L 917.527344 284.242188 L 919.535156 283.269531 L 921.730469 282.414062 L 923.980469 281.746094 L 926.355469 281.199219 L 928.914062 280.894531 Z M 931.53125 280.832031 "/>
<path style=" stroke:none;fill-rule:nonzero;fill:rgb(100%,100%,100%);fill-opacity:1;" d="M 981.144531 454.894531 C 981.144531 450.199219 977.335938 446.390625 972.636719 446.390625 C 967.941406 446.390625 964.132812 450.199219 964.132812 454.894531 C 964.132812 459.59375 967.941406 463.402344 972.636719 463.402344 C 977.335938 463.402344 981.144531 459.59375 981.144531 454.894531 Z M 981.144531 454.894531 "/>
<path style=" stroke:none;fill-rule:nonzero;fill:rgb(0%,0%,0%);fill-opacity:1;" d="M 1228.777344 815 L 1254.160156 996.472656 L 1279.464844 996.472656 L 1308.613281 873.109375 L 1337.722656 996.433594 L 1363.066406 996.433594 L 1388.414062 815 L 1360.953125 815 L 1346.785156 916.316406 L 1322.859375 815 L 1294.40625 815 L 1294.363281 815.039062 L 1294.363281 815.074219 L 1270.441406 916.3125 L 1256.269531 815 Z M 1228.777344 815 "/>
<path style=" stroke:none;fill-rule:nonzero;fill:rgb(0%,0%,0%);fill-opacity:1;" d="M 1553.21875 815 L 1593.933594 886.796875 L 1634.890625 815 L 1667.304688 815 L 1607.679688 916.070312 L 1607.679688 996.472656 L 1580.453125 996.472656 L 1580.453125 916.070312 L 1520.804688 815 Z M 1553.21875 815 "/>
<path style=" stroke:none;fill-rule:nonzero;fill:rgb(0%,0%,0%);fill-opacity:1;" d="M 959.585938 996.472656 L 959.625 996.277344 L 959.742188 995.933594 L 1015.207031 815 L 986.707031 815 L 947.179688 944.113281 L 907.582031 815 L 879.117188 815 L 934.621094 995.933594 L 934.773438 996.472656 Z M 959.585938 996.472656 "/>
<path style=" stroke:none;fill-rule:nonzero;fill:rgb(0%,0%,0%);fill-opacity:1;" d="M 854.738281 996.472656 L 828.085938 996.472656 L 828.085938 815 L 854.738281 815 Z M 854.738281 996.472656 "/>
<path style=" stroke:none;fill-rule:nonzero;fill:rgb(0%,0%,0%);fill-opacity:1;" d="M 740.21875 815 L 744.019531 815.078125 L 747.667969 815.308594 L 751.242188 815.691406 L 754.621094 816.269531 L 757.925781 817 L 761.074219 817.921875 L 764.148438 818.996094 L 767.105469 820.300781 L 769.949219 821.761719 L 772.675781 823.453125 L 775.363281 825.296875 L 777.9375 827.371094 L 780.433594 829.675781 L 782.851562 832.132812 L 785.234375 834.859375 L 787.539062 837.78125 L 789.765625 840.929688 L 791.996094 844.3125 L 794.144531 847.921875 L 795.183594 849.84375 L 795.453125 850.304688 L 795.605469 850.574219 L 795.566406 850.574219 L 795.488281 850.609375 L 795.257812 850.6875 L 794.988281 850.804688 L 794.605469 850.957031 L 793.644531 851.300781 L 792.417969 851.726562 L 790.957031 852.261719 L 789.34375 852.878906 L 787.539062 853.53125 L 785.65625 854.222656 L 781.738281 855.644531 L 777.898438 857.027344 L 776.128906 857.679688 L 774.480469 858.292969 L 772.980469 858.832031 L 771.753906 859.292969 L 770.753906 859.636719 L 770.367188 859.792969 L 770.101562 859.871094 L 769.871094 859.945312 L 769.753906 860.023438 L 769.714844 860.023438 L 769.597656 859.792969 L 769.136719 858.792969 L 768.136719 856.871094 L 767.101562 855.027344 L 765.988281 853.300781 L 764.875 851.6875 L 763.644531 850.148438 L 762.414062 848.765625 L 761.070312 847.460938 L 759.648438 846.269531 L 758.191406 845.15625 L 756.617188 844.195312 L 754.964844 843.351562 L 753.234375 842.582031 L 751.390625 841.929688 L 749.433594 841.429688 L 747.359375 841.046875 L 745.207031 840.738281 L 742.902344 840.585938 L 740.523438 840.546875 L 737.988281 840.625 L 735.375 840.816406 L 732.761719 841.238281 L 730.152344 841.851562 L 727.578125 842.699219 L 725.042969 843.8125 L 722.546875 845.195312 L 721.316406 846.039062 L 720.125 846.921875 L 718.933594 847.882812 L 717.78125 848.921875 L 716.628906 850.074219 L 715.515625 851.300781 L 714.441406 852.648438 L 713.367188 854.066406 L 712.367188 855.605469 L 711.367188 857.21875 L 710.371094 858.945312 L 709.449219 860.789062 L 708.566406 862.75 L 707.679688 864.824219 L 706.875 867.015625 L 706.105469 869.355469 L 705.375 871.777344 L 704.683594 874.351562 L 704.03125 877.039062 L 703.417969 879.84375 L 702.878906 882.800781 L 702.378906 885.914062 L 701.917969 889.179688 L 701.535156 892.558594 L 701.226562 896.09375 L 700.921875 899.78125 L 700.726562 903.621094 L 700.613281 905.582031 L 700.570312 907.425781 L 700.570312 911.035156 L 700.648438 914.496094 L 700.839844 917.835938 L 701.070312 921.0625 L 701.417969 924.136719 L 701.800781 927.09375 L 702.300781 929.9375 L 702.839844 932.664062 L 703.453125 935.277344 L 704.144531 937.773438 L 704.875 940.15625 L 705.679688 942.421875 L 706.527344 944.574219 L 707.445312 946.648438 L 708.40625 948.566406 L 709.40625 950.449219 L 710.480469 952.179688 L 711.558594 953.832031 L 712.710938 955.367188 L 713.863281 956.828125 L 715.089844 958.210938 L 716.320312 959.476562 L 717.585938 960.667969 L 718.894531 961.78125 L 720.199219 962.78125 L 721.542969 963.703125 L 722.886719 964.585938 L 724.230469 965.355469 L 726.996094 966.660156 L 729.800781 967.699219 L 732.605469 968.46875 L 735.371094 968.964844 L 738.097656 969.234375 L 740.75 969.234375 L 743.359375 969.042969 L 745.894531 968.660156 L 748.316406 968.007812 L 750.695312 967.160156 L 752.964844 966.125 L 755.113281 964.894531 L 757.148438 963.472656 L 759.070312 961.820312 L 760.875 960.054688 L 762.566406 958.054688 L 764.0625 955.945312 L 765.445312 953.640625 L 766.675781 951.179688 L 767.710938 948.566406 L 768.597656 945.800781 L 769.289062 942.921875 L 769.785156 939.886719 L 770.09375 936.738281 L 770.171875 933.472656 L 770.171875 932.972656 L 736.945312 932.972656 L 736.945312 905.734375 L 797.75 905.734375 L 797.75 905.851562 L 797.902344 907.3125 L 798.132812 910.308594 L 798.476562 916.339844 L 798.554688 922.484375 L 798.402344 928.707031 L 797.941406 934.890625 L 797.59375 937.964844 L 797.210938 941.039062 L 796.710938 944.113281 L 796.097656 947.109375 L 795.445312 950.105469 L 794.636719 953.023438 L 793.792969 955.945312 L 792.832031 958.785156 L 791.757812 961.550781 L 790.566406 964.28125 L 789.296875 966.929688 L 787.875 969.542969 L 786.378906 972.039062 L 784.726562 974.421875 L 782.960938 976.765625 L 781.078125 978.953125 L 779.082031 981.105469 L 776.929688 983.101562 L 774.625 984.984375 L 772.207031 986.753906 L 769.632812 988.402344 L 766.941406 989.902344 L 764.0625 991.246094 L 761.066406 992.476562 L 757.878906 993.550781 L 754.535156 994.472656 L 751.042969 995.203125 L 747.390625 995.78125 L 743.589844 996.203125 L 741.59375 996.355469 L 740.59375 996.394531 L 740.132812 996.394531 L 739.863281 996.433594 L 737.75 996.472656 L 735.601562 996.433594 L 733.449219 996.316406 L 731.222656 996.125 L 728.992188 995.855469 L 726.765625 995.511719 L 724.539062 995.050781 L 722.273438 994.511719 L 720.007812 993.859375 L 717.738281 993.089844 L 715.511719 992.207031 L 713.285156 991.246094 L 711.054688 990.132812 L 708.867188 988.941406 L 706.675781 987.597656 L 704.566406 986.136719 L 702.453125 984.523438 L 700.378906 982.757812 L 698.382812 980.875 L 696.421875 978.839844 L 694.5 976.6875 L 692.65625 974.34375 L 690.851562 971.847656 L 689.164062 969.199219 L 687.511719 966.355469 L 685.976562 963.359375 L 684.476562 960.207031 L 683.09375 956.867188 L 681.789062 953.332031 L 680.597656 949.605469 L 679.484375 945.6875 L 678.523438 941.578125 L 677.640625 937.273438 L 676.871094 932.78125 L 676.21875 928.054688 L 675.71875 923.136719 L 675.335938 917.992188 L 675.105469 912.613281 L 674.988281 907.003906 L 675.027344 901.355469 L 675.183594 895.863281 L 675.488281 890.640625 L 675.910156 885.605469 L 676.449219 880.804688 L 677.101562 876.234375 L 677.871094 871.855469 L 678.753906 867.667969 L 679.753906 863.710938 L 680.828125 859.90625 L 682.019531 856.335938 L 683.285156 852.917969 L 684.667969 849.691406 L 686.089844 846.65625 L 687.625 843.773438 L 689.238281 841.085938 L 690.929688 838.550781 L 692.695312 836.167969 L 694.503906 833.941406 L 696.382812 831.863281 L 698.34375 829.90625 L 700.339844 828.140625 L 702.375 826.488281 L 704.449219 824.949219 L 706.601562 823.566406 L 708.789062 822.300781 L 710.980469 821.148438 L 713.207031 820.109375 L 715.472656 819.1875 L 717.777344 818.34375 L 720.082031 817.652344 L 722.386719 817.039062 L 724.730469 816.5 L 727.074219 816.039062 L 729.417969 815.691406 L 734.101562 815.191406 L 738.789062 815 L 740.210938 815 "/>
<path style=" stroke:none;fill-rule:nonzero;fill:rgb(0%,0%,0%);fill-opacity:1;" d="M 1035.050781 815.078125 L 1143.90625 815 L 1143.90625 842.238281 L 1062.246094 842.273438 L 1062.246094 887.527344 L 1116.710938 887.527344 L 1116.710938 914.761719 L 1062.246094 914.761719 L 1062.246094 969.273438 L 1143.90625 969.273438 L 1143.90625 996.472656 L 1035.050781 996.472656 Z M 1035.050781 815.078125 "/>
<path style=" stroke:none;fill-rule:nonzero;fill:rgb(0%,0%,0%);fill-opacity:1;" d="M 1478.726562 815 L 1478.804688 815.230469 L 1478.84375 815.347656 L 1478.921875 815.539062 L 1541.757812 996.472656 L 1512.953125 996.472656 L 1494.667969 943.84375 L 1434.519531 943.84375 L 1416.3125 996.472656 L 1387.542969 996.472656 L 1450.035156 815.617188 L 1450.265625 815 Z M 1478.726562 815 "/>
<path style=" stroke:none;fill-rule:nonzero;fill:rgb(100%,100%,100%);fill-opacity:1;" d="M 1464.515625 857.066406 L 1443.929688 916.644531 L 1485.21875 916.644531 Z M 1464.515625 857.066406 "/>
</g>
</svg>
