<?xml version="1.0" encoding="UTF-8" standalone="no"?>
<!-- Created with Inkscape (http://www.inkscape.org/) -->

<svg
   xmlns:dc="http://purl.org/dc/elements/1.1/"
   xmlns:cc="http://creativecommons.org/ns#"
   xmlns:rdf="http://www.w3.org/1999/02/22-rdf-syntax-ns#"
   xmlns:svg="http://www.w3.org/2000/svg"
   xmlns="http://www.w3.org/2000/svg"
   xmlns:sodipodi="http://sodipodi.sourceforge.net/DTD/sodipodi-0.dtd"
   xmlns:inkscape="http://www.inkscape.org/namespaces/inkscape"
   width="123.216cm"
   height="164.216cm"
   viewBox="0 0 1232.16 1642.16"
   version="1.1"
   id="svg8"
   inkscape:version="0.92.2 (5c3e80d, 2017-08-06)"
   sodipodi:docname="Thailand_road_sign_ต-57_+_ตส-14.svg">
  <defs
     id="defs2">
    <pattern
       y="0"
       x="0"
       height="6"
       width="6"
       patternUnits="userSpaceOnUse"
       id="EMFhbasepattern" />
  </defs>
  <sodipodi:namedview
     id="base"
     pagecolor="#ffffff"
     bordercolor="#666666"
     borderopacity="1.0"
     inkscape:pageopacity="0.0"
     inkscape:pageshadow="2"
     inkscape:zoom="0.0625"
     inkscape:cx="3748.3132"
     inkscape:cy="1563.8074"
     inkscape:document-units="cm"
     inkscape:current-layer="layer1"
     showgrid="false"
     units="cm"
     scale-x="10"
     inkscape:window-width="1920"
     inkscape:window-height="1057"
     inkscape:window-x="-8"
     inkscape:window-y="-8"
     inkscape:window-maximized="1"
     inkscape:measure-start="0,0"
     inkscape:measure-end="0,0"
     inkscape:snap-global="false"
     showborder="true"
     inkscape:pagecheckerboard="false"
     borderlayer="false" />
  <metadata
     id="metadata5">
    <rdf:RDF>
      <cc:Work
         rdf:about="">
        <dc:format>image/svg+xml</dc:format>
        <dc:type
           rdf:resource="http://purl.org/dc/dcmitype/StillImage" />
        <dc:title></dc:title>
      </cc:Work>
    </rdf:RDF>
  </metadata>
  <g
     inkscape:label="Layer 1"
     inkscape:groupmode="layer"
     id="layer1"
     transform="translate(0,1345.1599)">
    <rect
       style="opacity:1;fill:#fad214;fill-opacity:1;fill-rule:nonzero;stroke:none;stroke-width:0;stroke-linecap:square;stroke-linejoin:miter;stroke-miterlimit:10;stroke-dasharray:none;stroke-opacity:1;paint-order:fill markers stroke"
       id="rect815"
       width="900"
       height="900"
       x="501.1684"
       y="-529.90295"
       rx="54"
       ry="54"
       transform="rotate(-45)" />
    <rect
       y="-511.90302"
       x="519.16833"
       height="864"
       width="864"
       id="rect9557"
       style="opacity:1;fill:#000000;fill-opacity:1;fill-rule:nonzero;stroke:none;stroke-width:0;stroke-linecap:square;stroke-linejoin:miter;stroke-miterlimit:10;stroke-dasharray:none;stroke-opacity:1;paint-order:fill markers stroke"
       rx="36"
       ry="36"
       transform="rotate(-45)" />
    <rect
       y="-487.90302"
       x="543.16833"
       height="816"
       width="816"
       id="rect9559"
       style="opacity:1;fill:#fad214;fill-opacity:1;fill-rule:nonzero;stroke:none;stroke-width:0;stroke-linecap:square;stroke-linejoin:miter;stroke-miterlimit:10;stroke-dasharray:none;stroke-opacity:1;paint-order:fill markers stroke"
       rx="12"
       ry="12"
       transform="rotate(-45)" />
    <circle
       style="fill:#000000;fill-opacity:1;stroke:none;stroke-width:32.87805939;stroke-linejoin:miter;stroke-miterlimit:4;stroke-dasharray:none;stroke-opacity:1"
       id="path31386"
       cx="842.7901"
       cy="-698.57983"
       r="10.5" />
    <circle
       style="fill:#000000;fill-opacity:1;stroke:none;stroke-width:54.98980331;stroke-linejoin:miter;stroke-miterlimit:4;stroke-dasharray:none;stroke-opacity:1"
       id="path31397"
       cx="546.68146"
       cy="-1066.0798"
       r="43" />
    <circle
       r="31"
       cy="-876.07983"
       cx="751.68146"
       id="circle31408"
       style="fill:#000000;fill-opacity:1;stroke:none;stroke-width:39.64381027;stroke-linejoin:miter;stroke-miterlimit:4;stroke-dasharray:none;stroke-opacity:1" />
    <path
       style="fill:#000000;fill-opacity:1;stroke:none;stroke-width:5.05896473;stroke-linecap:round;stroke-linejoin:round;stroke-miterlimit:10;stroke-dasharray:none;stroke-opacity:1"
       d="m 514.31502,-1025.5206 -10.94765,10.9807 -21.05298,4.2153 c -19.65269,16.7561 -45.51252,56.8906 -64.84307,86.9533 -10.33408,17.1631 -15.81087,18.512 -10.9461,37.1461 l 9.26352,26.1705 1.6831,7.5979 -13.47412,-4.2209 c -4.12236,-1.3017 -7.42715,-1.5241 -9.26351,3.3781 l -21.05298,67.537 c -1.30384,4.978 0.86302,8.2976 3.36982,9.2857 l 69.89599,23.6378 13.4736,88.6417 c 5.55699,35.1656 -8.46223,61.1427 -15.15515,74.291 l -55.57955,92.02652 7.5954,5.0999 -0.90021,1.70019 -5.89989,2.5001 c -0.92389,0.6384 -5.13442,4.93 -5.8999,5.8999 l -2.50011,8.4 15.20011,11.9 4.20026,-4.3 4.20336,3.4045 20.19618,13.4953 c 2.20604,1.4215 5.71035,1.637 8.40001,1.7001 h 5.09994 c 1.52059,-0.071 3.85528,-0.5196 5.04104,-0.8454 3.96123,-1.194 9.1859,-2.2808 14.31437,-5.9108 2.84085,-2.3538 -0.45652,-10.0985 -2.52594,-10.1265 h -2.52646 c -2.13333,-0.184 -7.16981,-1.2755 -8.42119,-1.6872 -8.27759,-2.8137 -15.73565,-7.0787 -19.37143,-10.1265 l -3.41013,-3.3037 3.39979,-3.3998 12.60027,7.6001 66.56906,-112.33381 c 2.78569,-5.1892 7.72889,-15.6976 9.26352,-20.2607 1.94122,-6.3895 6.86781,-22.4486 5.89628,-35.4568 l 1.67121,-87.7486 32.85433,86.9042 c 4.39772,9.5496 7.4944,30.3536 7.5768,34.6124 l -0.031,131.68291 10.13633,2.6004 v 3.3 l -6.73705,5.1 1.70067,16.8997 h 23.49986 l 1.70015,-5.0999 c 13.88566,5.2386 20.24476,5.7459 26.0997,5.9221 h 10.157 c 3.49562,-0.01 11.68428,-1.8223 15.15773,-3.3781 2.1845,-1.1592 4.19801,-3.269 4.2137,-5.9108 v -5.9092 c -0.32306,-1.4785 -2.3811,-4.2109 -5.05291,-4.2199 h -7.57888 c -7.27889,-0.3502 -16.83173,-2.5262 -16.84393,-2.5362 l -12.63179,-3.3781 -0.84336,-3.3781 8.42068,-0.8459 0.84335,-146.89131 c 0.22809,-10.0705 -0.74982,-16.7088 -4.21731,-30.3956 L 568.1996,-806.025 c -2.42272,-10.2392 -3.10301,-16.4401 -0.84336,-25.3286 l 11.78946,-60.7824 24.42125,42.2098 c 6.25929,8.7805 10.26983,12.3118 14.31798,15.1986 l 54.73723,43.0542 -5.0524,8.4424 c -3.30012,5.2954 -2.8911,6.2253 -3.36981,10.1317 -0.37431,3.6437 -0.1283,8.6483 1.68672,13.5066 l 13.47255,23.6394 -16.00006,-5.9097 c -2.68862,-0.9455 -4.20095,0.2898 -5.05241,2.5327 l -13.47412,42.2103 c -0.81391,2.9006 0.29726,5.1583 2.52648,5.9092 l 32.00011,7.598 c 0.54827,2.168 0.42916,5.3743 0,8.4413 -3.39518,17.9391 -12.80969,38.4844 -26.10434,50.6523 13.45263,6.1488 16.85104,8.4032 32.84397,11.823 l -2.52645,32.0797 c -2.73551,2.8458 -15.32184,19.7523 -19.36885,42.2103 -0.92033,1.143 -2.07995,4.0057 -2.52646,5.9092 l -4.20904,21.10881 -2.52645,7.59961 -4.21061,9.2867 c -0.50316,0.1268 -1.38853,0.5044 -1.68309,0.8455 -1.4654,1.62509 -3.19612,3.84529 -2.52595,8.44339 0.1905,0.7583 0.54273,1.2801 0.84335,1.6867 v 1.6872 l 8.42119,2.5327 1.68312,-1.6872 4.21008,2.5326 c 3.93543,2.0637 9.49311,2.479 12.63179,2.5327 h 17.68469 c 2.41665,-1.1905 2.2773,-4.6944 0.83974,-6.7521 -0.64646,-1.0368 -2.02332,-1.431 -4.20955,-2.5326 l -11.78999,-5.9092 c -2.20612,-0.9777 -4.63592,-1.1501 -7.57886,-3.37449 -0.51789,-1.5046 -0.7203,-5.1835 0.0119,-6.7567 l 37.89535,-71.75682 10.10531,-33.7685 c 11.72427,0.6774 24.42178,0.9923 27.79159,-0.8455 l 18.52652,26.17 1.68722,16.0404 4.2132,26.1705 5.89577,26.1736 v 10.13062 c -1.83973,1.4342 -4.16907,4.5968 -0.83924,10.1307 0.64133,0.84219 2.52646,2.53259 2.52646,2.53259 l 9.26301,-0.8459 v -1.68669 c 6.0235,0.47 14.52597,-1.0243 18.52702,-1.6914 3.13518,-0.827 13.05198,-3.9914 16.00007,-7.6016 0.25964,-0.5063 0.54464,-3.2444 0,-4.2214 -0.82857,-1.3378 -3.20627,-2.5397 -4.2132,-2.5327 -5.72034,0.1965 -19.89259,0.014 -23.57943,-0.8454 -1.33577,-0.5331 -2.46954,-1.40901 -3.36568,-2.53272 1.31887,-23.889 -1.34372,-68.0233 -1.68722,-75.9783 -0.35915,-6.8539 -5.14276,-19.3207 -10.10897,-26.1746 8.7901,-4.3226 19.72601,-6.1749 28.6334,-3.374 -0.34097,-2.1108 -1.16269,-5.0169 -1.68259,-6.7536 L 770.33608,-730.8838 V -776.48 l 12.63179,27.0237 c 4.07545,10.913 4.79512,10.6402 12.63179,18.5699 l 30.31648,27.8588 11.78997,-12.6633 -28.63236,-30.3915 c -3.75801,-5.3767 -7.07814,-10.022 -8.42375,-14.35 l -8.42121,-27.8588 -2.52646,-10.9745 c -2.21041,-10.2608 -6.75391,-17.8579 -12.63179,-22.7976 -3.14052,-3.1066 -9.06727,-7.6604 -13.47412,-8.4423 l -4.21007,-0.8455 -3.36982,-7.5979 c -13.08073,-0.7483 -17.65509,-3.3287 -27.79416,-9.2848 l -5.05293,9.2863 -16.00007,5.0653 c -4.05334,0.8718 -8.28807,3.4247 -10.94764,6.7526 l -12.63179,16.8837 -47.15835,-46.4307 c -3.46923,-4.5538 -7.64048,-13.5845 -10.95282,-24.4859 l -27.79004,-83.5763 c -3.28335,-7.7704 -9.12399,-25.4726 -32.00321,-33.7679 l -8.42068,-4.2215 -4.21111,-11.8117 c -12.67042,0.756 -24.04183,-0.7006 -38.73872,-10.9807 z"
       id="path31428"
       inkscape:connector-curvature="0"
       sodipodi:nodetypes="ccccccccccccccccccccccccccccccccccccccccccccccccccccccccccccccccccccccccccccccccccccccccccccccccccccccccccccccccccccccccccccccccccccccccccccccccccc" />
    <path
       d="m 705.46863,-797.5661 -16.84224,17.7283 -1.68293,3.3782 -0.84344,2.5326 -1.6829,2.5326 -0.84345,4.2209 v 0.8455 l 1.6829,3.3782 v 1.6871 l 10.94769,23.6374 z"
       style="fill:#fad214;fill-opacity:1;stroke:none;stroke-width:5.05896473;stroke-linecap:round;stroke-linejoin:round;stroke-miterlimit:10;stroke-dasharray:none;stroke-opacity:1"
       id="path31477"
       inkscape:connector-curvature="0" />
    <path
       inkscape:connector-curvature="0"
       id="path31508"
       style="fill:#fad214;fill-opacity:1;stroke:none;stroke-width:5.05896473;stroke-linecap:round;stroke-linejoin:round;stroke-miterlimit:10;stroke-dasharray:none;stroke-opacity:1"
       d="m 705.46863,-797.5661 -16.84224,17.7283 c -3.17964,4.033 -7.70202,9.2225 -3.36982,18.5751 l 10.94769,23.6374 z"
       sodipodi:nodetypes="ccccc" />
    <path
       inkscape:connector-curvature="0"
       id="path31510"
       style="fill:#fad214;fill-opacity:1;stroke:none;stroke-width:5.05896473;stroke-linecap:round;stroke-linejoin:round;stroke-miterlimit:10;stroke-dasharray:none;stroke-opacity:1"
       d="m 473.04391,-937.7041 -26.10542,32.08 c -4.75327,6.3111 -8.72476,10.2013 -5.89616,24.4846 l 7.57908,37.9892 17.68448,6.7535 z"
       sodipodi:nodetypes="cccccc" />
    <rect
       style="opacity:1;fill:#fad214;fill-opacity:1;stroke:none;stroke-width:36.96334076;stroke-linejoin:miter;stroke-miterlimit:4;stroke-dasharray:none;stroke-opacity:1"
       id="rect828"
       width="800"
       height="400"
       x="216.08"
       y="-104.99989"
       rx="46"
       ry="46" />
    <rect
       ry="33"
       rx="33"
       y="-91.999893"
       x="229.08"
       height="374"
       width="773.99994"
       id="rect830"
       style="opacity:1;fill:#000000;fill-opacity:1;stroke:none;stroke-width:35.15624619;stroke-linejoin:miter;stroke-miterlimit:4;stroke-dasharray:none;stroke-opacity:1" />
    <rect
       ry="13"
       rx="13"
       y="-71.999893"
       x="249.08"
       height="334"
       width="734"
       id="rect832"
       style="opacity:1;fill:#fad214;fill-opacity:1;stroke:none;stroke-width:32.35321808;stroke-linejoin:miter;stroke-miterlimit:4;stroke-dasharray:none;stroke-opacity:1" />
    <path
       inkscape:connector-curvature="0"
       id="path837"
       d="m 535.43061,194.99987 1.0096,-0.084 0.9535,-0.1121 0.9527,-0.1397 0.8692,-0.1964 0.8693,-0.2526 0.8131,-0.2799 0.7851,-0.3087 0.729,-0.3368 0.7009,-0.3922 0.6448,-0.3928 0.6446,-0.4483 0.5894,-0.4484 1.037,-1.0095 0.9252,-1.0657 0.7571,-1.1492 0.6167,-1.178 0.449,-1.2334 0.3361,-1.2341 0.083,-0.466 V 79.106171 a 16.556263,16.556263 0 0 0 -16.5562,-16.5563 16.556263,16.556263 0 0 0 -16.5563,16.5563 16.556263,16.556263 0 0 0 11.9205,15.8821 v 64.912299 l -1.2403,-2.7795 -1.0088,-2.2717 -1.0657,-2.1588 -1.0376,-2.0746 -1.0651,-1.9904 -1.0376,-1.935 -1.0657,-1.8227 -1.065,-1.7658 -1.0657,-1.6824 -1.065,-1.6263 -1.0657,-1.5421 -1.0657,-1.4579 -1.0651,-1.4017 -1.0376,-1.3183 -1.0657,-1.2614 -1.0369,-1.2054 -1.0095,-1.1218 -1.0378,-1.0657 -1.0089,-1.0089 -1.0095,-0.9534 -0.9815,-0.8973 -0.9535,-0.8412 -0.9808,-0.7851 -0.9254,-0.757 -0.9253,-0.6728 -0.8973,-0.6448 -0.8974,-0.5886 -0.8405,-0.5332 -0.8412,-0.5045 -0.8131,-0.4483 -0.8131,-0.4209 -0.7571,-0.3922 -0.7289,-0.3367 -1.4018,-0.5606 -1.2621,-0.449 -1.1211,-0.308 -0.9816,-0.2245 -0.8412,-0.1122 -0.6728,-0.056 -0.5044,0.028 -0.3368,0.085 -0.084,0.056 -0.056,0.084 0.6729,0.8692 0.6728,0.9535 0.6728,1.0089 0.6729,1.1218 0.6727,1.1492 0.6735,1.2341 0.6729,1.2895 0.7009,1.3456 0.6728,1.3737 0.7008,1.4586 18.225,40.6265 0.9535,2.1026 0.9808,2.0466 0.9534,1.991 0.9535,1.9063 0.9815,1.8507 0.9809,1.7666 1.0095,1.6824 1.0096,1.5975 1.0369,1.486 1.0657,1.3743 1.0657,1.2895 1.1212,1.1499 1.1498,1.0089 1.1773,0.8973 1.2334,0.7571 1.2621,0.6166 1.3176,0.449 1.3456,0.28 1.4025,0.1403 z"
       style="fill:#000000;fill-opacity:1;stroke:none;stroke-width:0.19626424;stroke-linecap:round;stroke-linejoin:round;stroke-miterlimit:10;stroke-dasharray:none;stroke-opacity:1" />
    <path
       sodipodi:nodetypes="sscccccccccccccccccccccccccccccccccccccccccccccccccccccccccccccccccccccccccccccccccccccccccccccsccccccccccccccccccccccccccccccccccccccccccccccccccccccccccccccccccccccccccccccccccccccccccccccccccss"
       inkscape:connector-curvature="0"
       id="path839"
       d="m 780.98321,62.549771 c 5.8702,0 10.5961,4.7258 10.5961,10.596 V 174.20557 l -0.1376,1.0883 -0.3641,1.7378 -0.4764,1.6537 -0.6448,1.5421 -0.785,1.4852 -0.8974,1.4018 -1.0088,1.3456 -1.1493,1.2334 -1.2615,1.1492 -1.3455,1.0931 -1.4572,1.0096 -1.5702,0.9246 -1.6537,0.8412 -1.7377,0.7571 -1.7947,0.7008 -1.9062,0.6168 -1.9616,0.5324 -2.0186,0.4764 -2.0745,0.3641 -2.13,0.3087 -2.1869,0.2526 -2.2422,0.1677 -2.243,0.084 -2.2985,0.028 -2.2984,-0.056 -2.2429,-0.1397 -2.2141,-0.1683 -2.2143,-0.2245 -2.1868,-0.308 -2.1862,-0.3368 -2.1027,-0.4202 -2.1026,-0.4764 -2.0177,-0.5606 -1.9623,-0.5886 -1.9062,-0.6728 -1.8221,-0.7571 -1.7659,-0.785 -1.6543,-0.8693 -1.5414,-0.9247 -1.4579,-1.0089 -1.3457,-1.0657 -1.2053,-1.1492 -1.093,-1.2053 -0.9809,-1.2895 -0.8131,-1.3456 -0.6728,-1.4292 -0.5044,-1.4861 -0.1964,-0.7851 -0.1404,-0.7844 -0.1126,-0.8131 -0.083,-0.8131 v -43.1125 l 0.028,-0.8131 0.028,-0.729 0.083,-0.6728 0.1126,-0.6447 0.1126,-0.5887 0.1683,-0.5605 0.1966,-0.5325 0.4482,-0.9254 0.5607,-0.8405 0.6447,-0.7009 0.7289,-0.6167 0.785,-0.5045 0.8967,-0.449 0.9248,-0.3922 0.9814,-0.308 0.3361,-0.1123 0.2525,-0.1403 0.2245,-0.1403 0.1396,-0.1684 0.083,-0.1676 0.028,-0.1684 -0.028,-0.1684 -0.1126,-0.1684 -0.1403,-0.1395 -0.1964,-0.1404 -0.2519,-0.1123 -0.4764,-0.1684 -0.2806,-0.1403 -0.5325,-0.2799 -0.9808,-0.6167 -0.8974,-0.7009 -0.785,-0.757 -0.7001,-0.8124 -0.6167,-0.8693 -0.5052,-0.9254 -0.3922,-0.9527 -0.3361,-0.9809 -0.2245,-1.0376 -0.1684,-1.037 -0.1389,-1.8035 V 79.105671 c 0,-9.1438 7.4125,-16.5563 16.5562,-16.5563 9.1439,0 16.5563,7.4125 16.5563,16.5563 0,7.3546 -4.86,13.8248 -11.9204,15.8841 v 7.294899 l 0.1663,2.4531 0.1125,1.1492 0.1966,1.1212 0.2518,1.1211 0.3087,1.0931 0.3641,1.0657 0.449,1.0369 0.5045,1.0089 0.5606,0.9535 0.6166,0.9247 0.6729,0.8692 0.7282,0.8131 0.785,0.7564 0.8412,0.7008 0.8974,0.6448 0.9247,0.5606 0.9815,0.5044 1.037,0.4209 1.0931,0.3642 1.121,0.2526 1.1774,0.1957 1.2059,0.084 h 1.373 l 0.2807,0.084 0.2238,0.1684 0.1403,0.1964 0.1126,0.2519 0.028,0.2526 -0.028,0.2519 -0.056,0.2244 -0.1126,0.2245 -0.1683,0.1677 -0.1958,0.1122 -0.2245,0.028 -0.9808,0.1403 -2.2984,0.5887 -2.1581,0.6167 -1.0376,0.3648 -0.9808,0.3641 -0.9254,0.3929 -0.8966,0.4202 -0.8412,0.4484 -0.8124,0.4483 -0.7571,0.5051 -0.7008,0.5325 -0.6729,0.5325 -0.5886,0.5886 -0.5326,0.5887 -0.5043,0.6447 -0.4209,0.6729 -0.3643,0.7008 -0.3086,0.757 -0.2519,0.7563 -0.1684,0.8132 -0.1125,0.8693 -0.056,0.9123 v 32.1858 l 0.2512,1.0726 0.3361,0.8685 0.3922,0.8131 0.4209,0.8132 0.4483,0.7564 0.5045,0.7289 0.5044,0.6728 0.5605,0.6447 0.5888,0.6167 0.6173,0.5887 0.6441,0.5325 0.6727,0.5051 1.4019,0.8686 1.486,0.757 1.5413,0.5886 1.5982,0.4203 1.6537,0.3087 1.6536,0.1121 h 1.6543 l 1.6537,-0.1964 1.6262,-0.3087 1.5975,-0.4763 1.5414,-0.6448 1.4579,-0.7844 1.4017,-0.9535 0.6729,-0.5325 0.6447,-0.5886 0.5886,-0.5886 0.5887,-0.6728 0.5606,-0.6728 0.5044,-0.729 0.5045,-0.7851 0.4209,-0.8124 0.4203,-0.8412 0.3641,-0.8967 0.1683,-0.4489 0.139,-0.7358 V 73.144871 c 0,-5.8702 4.7258,-10.5961 10.596,-10.5961 z"
       style="fill:#000000;fill-opacity:1;stroke:none;stroke-width:0.19622234;stroke-linecap:round;stroke-linejoin:round;stroke-miterlimit:10;stroke-dasharray:none;stroke-opacity:1" />
    <path
       inkscape:connector-curvature="0"
       id="path841"
       d="m 441.35331,62.550371 1.7371,0.084 1.8221,0.1684 1.8494,0.2245 1.8781,0.3367 1.9336,0.3929 1.9897,0.4764 1.9897,0.5613 2.0746,0.6454 2.03,0.7885 2.2012,0.6982 4.2882,0.6447 1.1211,0.1403 h 1.0089 l 0.4764,-0.056 0.4764,-0.084 0.4763,-0.1684 0.5045,-0.1964 0.4764,-0.2799 0.5044,-0.3368 0.5326,-0.449 0.5605,-0.5051 0.5886,-0.5886 0.6167,-0.7016 0.9466,-1.1061 0.2308,0.321 0.7282,0.9254 0.6728,0.898 0.5605,0.8693 0.5045,0.8973 0.4202,0.8699 0.3361,0.8412 0.2807,0.87 0.2237,0.8131 0.1404,0.8419 0.085,0.785 0.028,0.7851 -0.028,0.7858 -0.085,0.757 -0.1404,0.7296 -0.1958,0.729 -0.2245,0.7015 -0.2517,0.6735 -0.6729,1.2621 -0.7844,1.206 -0.8692,1.0658 -1.0089,0.9815 -1.037,0.8418 -1.0931,0.729 -1.1212,0.5893 -1.0929,0.449 -1.0925,0.2799 -1.0369,0.1404 -0.5052,0.028 -0.4763,-0.055 -0.4483,-0.056 -0.4203,-0.1404 -0.5886,-0.2525 -0.8405,-0.3368 -0.6167,-0.2806 -0.6729,-0.2519 -0.7282,-0.3087 -0.785,-0.3087 -0.8125,-0.3086 -1.7659,-0.6729 -1.9056,-0.6734 -1.9896,-0.6448 -2.074,-0.5893 -2.13,-0.5332 -2.158,-0.4483 -2.1582,-0.3087 -2.1019,-0.1965 -1.037,-0.028 -1.037,0.028 -0.9807,0.056 -0.9808,0.1124 -0.9535,0.1683 -0.8966,0.2519 -0.8967,0.2806 -0.8131,0.3368 -0.8124,0.4209 -0.7291,0.5045 -0.7001,0.5612 -0.6448,0.6174 -0.5886,0.7289 -0.5325,0.7858 -0.4763,0.8973 -0.3922,0.9534 -0.3368,1.0664 -0.2518,1.178 -0.1685,1.2341 -0.085,1.3743 3.167,0.1404 3.1951,0.3086 3.1669,0.3923 3.167,0.5331 3.1109,0.6735 3.0547,0.757 2.9712,0.8693 2.9145,0.9822 2.7747,1.0938 2.6906,1.1779 2.5222,1.2902 1.2046,0.6735 1.1773,0.7009 1.1492,0.701499 2.1301,1.5147 0.9808,0.7851 0.9527,0.7858 0.8967,0.8411 0.8412,0.8419 0.7843,0.8412 0.7289,0.8693 0.6729,0.898 0.5879,0.9254 0.5607,0.926 0.4763,0.9254 0.3928,0.9535 0.3642,0.9822 0.2525,0.9815 0.1958,1.0096 0.1404,1.0102 0.028,0.5325 6e-4,62.4592 a 16.556263,16.556263 0 0 1 -16.5562,16.5563 16.556263,16.556263 0 0 1 -16.5563,-16.5563 16.556263,16.556263 0 0 1 11.9225,-15.8827 v -41.7326 -0.7488 l -0.056,-0.7009 -0.1404,-0.6735 -0.2237,-0.6728 -0.2807,-0.6735 -0.336,-0.6448 -0.4203,-0.6454 -0.5045,-0.6455 -0.5324,-0.6166 -0.6167,-0.6174 -0.6729,-0.5886 -0.7283,-0.5894 -0.785,-0.5612 -0.8406,-0.5606 -0.8965,-0.5332 -0.9255,-0.5044 -1.0088,-0.5052 -1.037,-0.477 -1.0931,-0.4483 -1.121,-0.4491 -1.1767,-0.3928 -2.4668,-0.7851 -2.6063,-0.6454 -2.7461,-0.5887 -2.859,-0.449 -2.9425,-0.3367 -3.0547,-0.2245 -3.1108,-0.084 -3.195,0.028 -3.2232,0.1683 -3.2511,0.3368 -1.6536,0.2245 -0.5326,0.075 v -1.8419 l 0.085,-2.6645 0.1125,-2.581099 0.1958,-2.4962 0.2245,-2.4121 0.3081,-2.3004 0.3928,-2.2156 0.4203,-2.1321 0.4764,-2.0472 0.5325,-1.9637 0.6167,-1.8514 0.6441,-1.7666 0.7288,-1.6831 0.7571,-1.5989 0.8125,-1.5146 0.8965,-1.4306 0.9255,-1.3463 0.9807,-1.2341 1.037,-1.1786 1.0931,-1.0657 1.1485,-1.0096 1.1773,-0.898 1.2334,-0.8412 1.3168,-0.7289 1.3176,-0.6735 1.4011,-0.5613 1.4291,-0.4764 1.4853,-0.4209 1.5415,-0.3367 1.5975,-0.2245 1.6255,-0.1684 1.6537,-0.084 z"
       style="fill:#000000;fill-opacity:1;stroke:none;stroke-width:0.19626394;stroke-linecap:round;stroke-linejoin:round;stroke-miterlimit:10;stroke-dasharray:none;stroke-opacity:1" />
    <path
       inkscape:connector-curvature="0"
       id="path843"
       d="m 355.33071,-4.999849 2.2149,0.056 2.2429,0.1684 2.215,0.2526 2.2155,0.3641 2.215,0.449 2.1868,0.5325 2.1868,0.6447 2.1314,0.72902 2.1307,0.7851 2.0746,0.89729996 2.0192,0.9815 1.991,1.06570004 0.9528,0.5606 0.083,0.056 h 0.028 l 0.056,0.056 0.1126,0.056 0.9527,0.5044 0.9816,0.3648 1.0376,0.308 1.0657,0.1964 1.093,0.1124 1.1218,0.056 1.1493,-0.028 1.1217,-0.1122 1.1499,-0.1403 1.1212,-0.2245 1.1218,-0.2526 1.1211,-0.308 1.0657,-0.3648 1.0096,-0.3642 1.0088,-0.3928 0.9255,-0.4203 0.8692,-0.449 0.8132,-0.44830004 0.729,-0.449 0.3079,-0.2095 0.028,1.05960004 -0.056,1.7577 -0.1684,1.6823 -0.3087,1.5702 -0.3641,1.4579 -0.5052,1.3737 -0.5605,1.2621 -0.6728,1.1492 -0.757,1.0657 -0.8412,0.9815 -0.8973,0.8693 -0.9534,0.7851 -1.037,0.7008 -1.0937,0.6167 -1.15,0.5051 -1.2053,0.4484 -1.234,0.3928 -1.2895,0.28 -1.3176,0.2245 -1.3464,0.1683 -1.3456,0.056 -1.3457,-0.028 -1.3182,-0.1403 -1.3175,-0.1964 -1.2895,-0.3087 -1.2902,-0.3641 -1.2896,-0.421 -1.2621,-0.4764 -2.551,-1.0937 -2.5236,-1.2053 -2.4954,-1.2622 -2.5238,-1.2614 -2.5235,-1.178 -1.2615,-0.5325 -0.6447,-0.2525 -0.5051,-0.1677 -0.2238,-0.028 -1.6824,-0.084 -1.6543,-0.056 -1.5421,0.056 -1.5141,0.084 -1.4304,0.1677 -1.3457,0.2525 -1.2895,0.3087 -1.206,0.3922 -1.1499,0.4209 -1.037,0.5326 -0.9814,0.5886 -0.8974,0.6447 -0.8131,0.7297 -0.729,0.7851 -0.6167,0.8405 -0.5612,0.9253 -0.4764,1.0096 -0.3641,1.0657 -0.2807,1.1211 -0.1126,0.6448 0.9542,0.056 1.0931,0.084 2.1595,0.2245 2.1307,0.2245 2.0752,0.28 2.0465,0.3367 2.0184,0.3648 1.935,0.3922 1.9069,0.449 1.8781,0.4764 1.8228,0.5325 1.7666,0.5613 1.7105,0.5886 1.6543,0.6167 1.6262,0.6728 1.5702,0.729 1.5139,0.7289 1.458,0.7851 1.4017,0.8131 1.3464,0.8693 1.2894,0.8692 1.2335,0.9254 1.1779,0.9535 1.0938,1.0095 1.065,1.0089 0.9814,1.0657 0.9536,1.0938 0.8692,1.1211 0.7851,1.1499 0.7569,1.1772 0.6729,1.2341 0.5886,1.2334 0.5613,1.2902 0.4483,1.3176 0.4203,1.3456 0.3367,1.3744 0.2526,1.4017 0.1957,1.4299 0.1126,1.4579 0.045,1.477 V 162.55927 a 16.556263,16.556263 0 0 1 11.9204,15.8834 16.556263,16.556263 0 0 1 -16.5562,16.5563 16.556263,16.556263 0 0 1 -16.5563,-16.5563 l 8e-4,-127.284599 -0.02,-0.922 -0.1403,-0.8692 -0.2526,-0.8412 -0.3921,-0.8412 -0.5044,-0.8131 -0.6175,-0.7851 -0.7289,-0.7851 -0.8131,-0.757 -0.9254,-0.7289 -1.0095,-0.729 -1.0651,-0.7016 -1.1499,-0.6728 -1.2334,-0.6447 -1.2895,-0.6167 -1.3743,-0.6167 -1.4019,-0.5613 -1.4579,-0.5325 -1.4859,-0.5325 -1.542,-0.477 -3.141,-0.8693 -3.2525,-0.729 -3.28,-0.5886 -3.2524,-0.4483 -1.6264,-0.1684 -1.5981,-0.1121 -1.5702,-0.084 -1.542,-0.028 -1.4868,0.028 -1.4578,0.056 -1.4298,0.084 -1.3737,0.1676 -1.2902,0.1965 -1.2614,0.2526 -1.15,0.2806 -1.2614,0.3922 -0.028,-0.28 -0.083,-0.8134 -0.1126,-1.6263 -0.056,-1.5427 -0.028,-1.5421 0.028,-1.486 0.056,-1.4579 0.083,-1.4298 0.1396,-1.3737 0.1685,-1.3463 0.2245,-1.3176 0.2524,-1.2902 0.28,-1.2614 0.3088,-1.2054 0.3641,-1.1779 0.3647,-1.1499 0.4203,-1.1212 0.449,-1.0657 0.4764,-1.0649 1.0657,-1.9911 1.1498,-1.8789 1.2896,-1.7378 1.3737,-1.5982 1.4579,-1.5147 1.5701,-1.3737 1.6544,-1.2334 1.7384,-1.14990004 1.7947,-1.0096 1.8788,-0.89719996 1.9343,-0.78512 1.9911,-0.6729 2.0184,-0.5605 2.1027,-0.4483 2.1033,-0.3648 2.1588,-0.2245 2.1875,-0.1404 z"
       style="fill:#000000;fill-opacity:1;stroke:none;stroke-width:0.19627093;stroke-linecap:round;stroke-linejoin:round;stroke-miterlimit:10;stroke-dasharray:none;stroke-opacity:1" />
    <path
       sodipodi:nodetypes="ssccccccccccccccccccccccccccccccccccccccccccccccccccccccccccccccccccccccss"
       inkscape:connector-curvature="0"
       id="path845"
       d="m 679.13201,10.894771 c 5.5033,0 9.9335,4.4302 9.9335,9.9335 v 28.4767 l -5.4929,-1.6263 -3.4482,-0.7289 -3.3915,-0.6728 -3.3079,-0.6167 -3.252,-0.6167 -3.1675,-0.5325 -3.0836,-0.5051 -2.9992,-0.4764 -2.9432,-0.4203 -2.8597,-0.3648 -2.8034,-0.3641 -2.6906,-0.2806 -2.6633,-0.2807 -2.579,-0.2238 -2.4948,-0.1964 -2.4388,-0.1403 -2.3551,-0.1123 -2.2984,-0.084 -2.2143,-0.055 h -4.2613 l -2.0185,0.055 -1.9616,0.084 -1.9063,0.1123 -1.8219,0.1683 -1.7667,0.1684 -1.6817,0.2238 -1.6536,0.2245 -1.5702,0.2526 -1.5139,0.308 -1.4572,0.3087 -1.3738,0.3641 0.083,-1.2046 0.1684,-1.178 0.1677,-1.1492 0.2525,-1.1218 0.2526,-1.0931 0.3362,-1.093 0.7289,-2.1027 0.8973,-2.0191 1.0089,-1.9062 1.1772,-1.794 1.2895,-1.7104 1.4298,-1.5983 1.5415,-1.5133 1.6543,-1.3737 1.7379,-1.234 1.85,-1.1492 1.9343,-1.0096 2.0465,-0.8686 2.102,-0.757 2.1587,-0.6167 2.243,-0.477 2.2984,-0.3361 2.3545,-0.1965 2.4107,-0.056 2.4393,0.1122 2.4669,0.2806 2.4948,0.4203 2.4949,0.5606 2.5508,0.7569 2.5229,0.9255 2.5229,1.093 2.551,1.2622 1.2615,0.7001 1.2333,0.7571 1.2615,0.785 1.2615,0.8412 1.2333,0.8693 1.1841,0.911 v -5.1656 c 0,-5.5033 4.4309,-9.9335 9.9342,-9.9335 z"
       style="fill:#000000;stroke:none;stroke-width:0.19623658;stroke-linecap:round;stroke-linejoin:round;stroke-miterlimit:10;stroke-dasharray:none;stroke-opacity:1" />
    <path
       sodipodi:nodetypes="cccccccccccccccccccccccccccccccccccc"
       inkscape:connector-curvature="0"
       id="path847"
       style="fill:#fad214;fill-opacity:1;stroke:none;stroke-width:0.19623658;stroke-linecap:round;stroke-linejoin:round;stroke-miterlimit:10;stroke-dasharray:none;stroke-opacity:1"
       d="m 625.43361,32.035071 1.7381,-0.2803 1.7099,-0.2523 1.738,-0.1963 1.7101,-0.1682 3.4479,-0.1682 h 3.4479 l 3.4759,0.1402 3.4481,0.2803 3.4479,0.4486 3.448,0.5607 3.4481,0.7009 3.4479,0.785 2.2706,0.5887 -0.9808,-0.8971 -1.5699,-1.2616 -1.6539,-1.1214 -1.7379,-1.0092 -1.7661,-0.8972 -1.8501,-0.7569 -1.8782,-0.6448 -1.9061,-0.5327 -1.9063,-0.3925 -1.9341,-0.3084 -1.9343,-0.1402 -1.9062,-0.056 -1.9063,0.084 -1.85,0.1963 -1.8221,0.3084 -1.766,0.4205 -1.682,0.5327 -1.6259,0.6448 -1.5138,0.785 -1.4297,0.8971 -1.3173,0.9812 z" />
    <path
       inkscape:connector-curvature="0"
       id="path849"
       d="m 830.65461,62.549771 a 16.556263,16.556263 0 0 0 -16.5562,16.5563 16.556263,16.556263 0 0 0 11.9205,15.8828 v 90.872299 l 0.1566,1.0095 0.1404,0.6448 0.1965,0.6448 0.2245,0.5886 0.3079,0.6167 0.3362,0.5606 0.3928,0.5605 0.4203,0.5052 0.9534,0.9808 1.065,0.8692 1.1773,0.7283 1.2615,0.5886 1.3175,0.4491 1.3738,0.2799 0.6727,0.056 0.7002,0.028 h 0.2807 l 0.1126,0.028 h 0.2798 l 0.6729,-0.056 0.729,-0.1396 0.8405,-0.1965 0.8972,-0.2806 0.9535,-0.3642 0.9808,-0.4483 0.9808,-0.5612 0.9816,-0.6441 0.9527,-0.757 0.8974,-0.8692 0.4202,-0.4764 0.2246,-0.2526 0.028,-0.056 0.1402,-0.1677 0.2526,-0.3087 1.0931,-1.2334 1.2053,-1.2053 1.2615,-1.1492 1.3455,-1.1211 1.3738,-1.065 1.4291,-1.0096 1.4298,-0.9527 1.4579,-0.9254 1.4572,-0.8686 1.4298,-0.8131 2.8036,-1.4299 1.2889,-0.6447 1.2614,-0.5606 1.1773,-0.5044 1.0656,-0.4203 0.9808,-0.3928 0.8412,-0.28 0.729,-0.2245 0.5606,-0.1684 0.8768,-0.2306 c -0.017,0.3031 -0.028,0.6066 -0.032,0.9103 -10e-5,10.9726 8.8951,19.8678 19.8676,19.8676 10.9727,2e-4 19.8678,-8.895 19.8677,-19.8676 0,-10.4574 -8.1091,-19.1234 -18.5432,-19.8204 V 73.145871 c 0,-5.8702 -4.7259,-10.5961 -10.5961,-10.5961 -5.8702,0 -10.596,4.7259 -10.596,10.5961 v 82.781299 l -1.2669,0.4176 -1.5695,0.5886 -3.1396,1.2615 -3.0554,1.3449 -2.9151,1.3737 -1.4017,0.7009 -1.3738,0.7009 -1.2895,0.7009 -1.2334,0.6728 -1.1772,0.6448 -1.0931,0.6447 -1.037,0.5886 -0.9254,0.5606 -0.8412,0.5325 -0.7563,0.4764 -0.6447,0.4209 -0.5051,0.3642 -0.4202,0.308 -0.5203,0.4127 v -89.536299 -0.132 0 a 16.556263,16.556263 0 0 0 -16.5515,-16.4242 z"
       style="fill:#000000;fill-opacity:1;stroke:none;stroke-width:0.19622223;stroke-linecap:round;stroke-linejoin:round;stroke-miterlimit:10;stroke-dasharray:none;stroke-opacity:1" />
    <path
       inkscape:connector-curvature="0"
       id="path851"
       d="m 588.93301,62.549871 c -5.8701,0 -10.596,4.7258 -10.596,10.596 V 178.44377 a 16.556263,16.556263 0 0 0 16.5563,16.5563 16.556263,16.556263 0 0 0 16.5563,-16.5563 16.556263,16.556263 0 0 0 -11.9205,-15.882 V 73.145871 c 0,-5.8702 -4.7259,-10.596 -10.5961,-10.596 z"
       style="opacity:1;fill:#000000;fill-opacity:1;stroke:none;stroke-width:59.26960754;stroke-linejoin:miter;stroke-miterlimit:4;stroke-dasharray:none;stroke-opacity:1" />
    <path
       transform="scale(-1,1)"
       d="m -893.5686,178.44387 a 3.3112526,3.3112526 0 0 1 -2.86763,-1.65563 3.3112526,3.3112526 0 0 1 0,-3.31125 3.3112526,3.3112526 0 0 1 2.86763,-1.65563 l 0,3.31125 z"
       sodipodi:end="4.712389"
       sodipodi:start="1.5707963"
       sodipodi:ry="3.3112526"
       sodipodi:rx="3.3112526"
       sodipodi:cy="175.13261"
       sodipodi:cx="-893.5686"
       sodipodi:type="arc"
       id="path853"
       style="opacity:1;fill:#fad214;fill-opacity:1;stroke:none;stroke-width:39.34932709;stroke-linejoin:miter;stroke-miterlimit:4;stroke-dasharray:none;stroke-opacity:1" />
    <path
       style="fill:#000000;fill-opacity:1;stroke:none;stroke-width:0.19626394;stroke-linecap:round;stroke-linejoin:round;stroke-miterlimit:10;stroke-dasharray:none;stroke-opacity:1"
       d="m 651.94911,62.550371 1.7371,0.084 1.8221,0.1684 1.8494,0.2245 1.8781,0.3367 1.9335,0.3929 1.9897,0.4764 1.9898,0.5613 2.0746,0.6454 2.03,0.7885 2.2012,0.6982 4.2882,0.6447 1.1211,0.1403 h 1.0089 l 0.4764,-0.056 0.4764,-0.084 0.4763,-0.1684 0.5045,-0.1964 0.4764,-0.2799 0.5044,-0.3368 0.5326,-0.449 0.5605,-0.5051 0.5886,-0.5886 0.6167,-0.7016 0.9466,-1.1061 0.2306,0.321 0.7284,0.9254 0.6728,0.898 0.5605,0.8693 0.5044,0.8973 0.4203,0.8699 0.3361,0.8412 0.2806,0.87 0.2238,0.8131 0.1404,0.8419 0.085,0.785 0.028,0.7851 -0.028,0.7858 -0.085,0.757 -0.1404,0.7296 -0.1958,0.729 -0.2245,0.7015 -0.2518,0.6735 -0.6728,1.2621 -0.7844,1.206 -0.8692,1.0658 -1.0089,0.9815 -1.037,0.8418 -1.0931,0.729 -1.1212,0.5893 -1.0929,0.449 -1.0925,0.2799 -1.0369,0.1404 -0.5052,0.028 -0.4763,-0.055 -0.4483,-0.056 -0.4203,-0.1404 -0.5886,-0.2525 -0.8405,-0.3368 -0.6167,-0.2806 -0.6729,-0.2519 -0.7282,-0.3087 -0.7852,-0.3087 -0.8124,-0.3086 -1.7658,-0.6729 -1.9056,-0.6734 -1.9897,-0.6448 -2.0739,-0.5893 -2.13,-0.5332 -2.158,-0.4483 -2.1582,-0.3087 -2.102,-0.1965 -1.0369,-0.028 -1.037,0.028 -0.9808,0.056 -0.9807,0.1124 -0.9536,0.1683 -0.8966,0.2519 -0.8966,0.2806 -0.8131,0.3368 -0.8125,0.4209 -0.729,0.5045 -0.7001,0.5612 -0.6448,0.6174 -0.5886,0.7289 -0.5325,0.7858 -0.4765,0.8973 -0.3922,0.9534 -0.3366,1.0664 -0.252,1.178 -0.1683,1.2341 -0.085,1.3743 3.167,0.1404 3.1951,0.3086 3.1669,0.3923 3.167,0.5331 3.1109,0.6735 3.0547,0.757 2.9712,0.8693 2.9144,0.9822 2.7749,1.0938 2.6906,1.1779 2.5221,1.2902 1.2046,0.6735 1.1773,0.7009 1.1492,0.701499 2.13,1.5147 0.981,0.7851 0.9527,0.7858 0.8966,0.8411 0.8412,0.8419 0.7843,0.8412 0.7289,0.8693 0.673,0.898 0.5879,0.9254 0.5605,0.926 0.4764,0.9254 0.3928,0.9535 0.3642,0.9822 0.2526,0.9815 0.1958,1.0096 0.1403,1.0102 0.028,0.5325 v 62.4592 a 16.556263,16.556263 0 0 1 -16.5563,16.5563 16.556263,16.556263 0 0 1 -16.5563,-16.5563 16.556263,16.556263 0 0 1 11.9226,-15.8827 v -41.7326 -0.7488 l -0.056,-0.7009 -0.1404,-0.6735 -0.2237,-0.6728 -0.2807,-0.6735 -0.3362,-0.6448 -0.4201,-0.6454 -0.5045,-0.6455 -0.5324,-0.6166 -0.6167,-0.6174 -0.6729,-0.5886 -0.7283,-0.5894 -0.7851,-0.5612 -0.8405,-0.5606 -0.8965,-0.5332 -0.9255,-0.5044 -1.0088,-0.5052 -1.037,-0.477 -1.0931,-0.4483 -1.1211,-0.4491 -1.1766,-0.3928 -2.4668,-0.7851 -2.6063,-0.6454 -2.7461,-0.5887 -2.859,-0.449 -2.9425,-0.3367 -3.0547,-0.2245 -3.1108,-0.084 -3.1951,0.028 -3.2231,0.1683 -3.2511,0.3368 -1.6536,0.2245 -0.5326,0.075 v -1.8419 l 0.085,-2.6645 0.1125,-2.581099 0.1958,-2.4962 0.2245,-2.4121 0.3081,-2.3004 0.3928,-2.2156 0.4203,-2.1321 0.4763,-2.0472 0.5326,-1.9637 0.6167,-1.8514 0.6441,-1.7666 0.7288,-1.6831 0.7571,-1.5989 0.8125,-1.5146 0.8965,-1.4306 0.9255,-1.3463 0.9807,-1.2341 1.037,-1.1786 1.0931,-1.0657 1.1485,-1.0096 1.1772,-0.898 1.2335,-0.8412 1.3168,-0.7289 1.3176,-0.6735 1.4011,-0.5613 1.4291,-0.4764 1.4853,-0.4209 1.5413,-0.3367 1.5977,-0.2245 1.6255,-0.1684 1.6537,-0.084 z"
       id="path855"
       inkscape:connector-curvature="0" />
  </g>
</svg>
